<svg xmlns="http://www.w3.org/2000/svg" width="139.516" height="32" fill="none" overflow="visible"><path fill="#111127" d="m139.296 13.223-2.196.256a1.9 1.9 0 0 0-.327-.668 1.6 1.6 0 0 0-.612-.504q-.386-.192-.945-.192-.752 0-1.265.348-.505.348-.499.902a.97.97 0 0 0 .326.774q.34.298 1.118.49l1.744.398q1.452.333 2.157 1.058.712.724.719 1.896-.007 1.03-.566 1.819-.552.78-1.538 1.221-.984.44-2.263.44-1.876 0-3.022-.838-1.145-.845-1.364-2.35l2.35-.242q.159.738.679 1.115.519.377 1.351.377.858 0 1.378-.377.525-.375.525-.93a1 1 0 0 0-.339-.774q-.333-.306-1.038-.47l-1.744-.39q-1.472-.327-2.177-1.1-.705-.782-.699-1.975-.006-1.008.513-1.747.525-.745 1.457-1.15.939-.413 2.164-.413 1.797 0 2.829.817 1.038.817 1.284 2.209m-15.351 12.344q-1.299 0-2.23-.377-.932-.369-1.498-.994a3.5 3.5 0 0 1-.785-1.385l2.17-.561q.146.32.426.632.28.32.752.526.479.213 1.205.213 1.025 0 1.697-.533.672-.525.672-1.733v-2.067h-.119q-.219.445-.546.817-.352.42-.939.703-.579.285-1.458.284a4 4 0 0 1-2.136-.59q-.953-.596-1.518-1.775-.56-1.185-.559-2.969 0-1.796.559-3.032.566-1.243 1.524-1.882a3.74 3.74 0 0 1 2.137-.647q.899 0 1.478.327.585.32.932.774.346.447.526.845h.133v-1.804h2.376v11.087q0 1.399-.626 2.315-.625.917-1.71 1.371-1.086.455-2.463.455m.02-6.492q.765 0 1.304-.398.54-.398.819-1.143.28-.746.28-1.79 0-1.03-.28-1.804-.273-.774-.812-1.2-.533-.433-1.311-.433-.805 0-1.345.447t-.812 1.229q-.273.774-.273 1.761 0 1.002.273 1.754.28.747.819 1.165.546.412 1.338.412m-13.477-4.219v6.392h-2.41V10.339h2.303v1.854h.12q.353-.915 1.125-1.456.779-.54 1.923-.54 1.06 0 1.844.483.792.483 1.225 1.4.44.915.433 2.222v6.946h-2.41V14.7q0-1.094-.532-1.712-.526-.617-1.458-.617-.633 0-1.125.298a2 2 0 0 0-.766.845q-.272.555-.272 1.342m-7.298 6.392V10.339h2.41v10.91h-2.41Zm1.212-12.457q-.573 0-.985-.405a1.35 1.35 0 0 1-.413-.987q0-.582.413-.987.412-.412.985-.412.579 0 .985.412.413.405.413.987 0 .575-.413.987-.406.405-.985.405M89.613 21.248l-2.89-10.909h2.457l1.797 7.67h.093l1.837-7.67h2.43l1.837 7.628h.1l1.771-7.628h2.462l-2.895 10.91h-2.51l-1.916-7.373h-.14l-1.917 7.372Zm-9.931.221q-.972 0-1.75-.37a2.9 2.9 0 0 1-1.225-1.108q-.446-.731-.446-1.804 0-.922.32-1.527c.203-.391.503-.724.871-.966a4.2 4.2 0 0 1 1.245-.547 9.6 9.6 0 0 1 1.445-.277q.73-.078 1.457-.177.56-.085.812-.256.26-.177.26-.547v-.042q0-.803-.446-1.243t-1.285-.44q-.885 0-1.404.411a2.03 2.03 0 0 0-.692.974l-2.25-.341q.266-.995.878-1.662a3.8 3.8 0 0 1 1.498-1.009 5.4 5.4 0 0 1 1.957-.34q.739-.001 1.471.184.732.184 1.338.61.606.42.972 1.144.373.725.373 1.811v7.301h-2.317V19.75h-.08a3.1 3.1 0 0 1-.619.852c-.285.275-.622.49-.992.632q-.592.235-1.39.235Zm.626-1.89q.726 0 1.258-.305c.343-.196.626-.48.819-.824q.293-.511.293-1.115V16.05q-.113.099-.386.184a5 5 0 0 1-.6.15q-.332.063-.659.113l-.565.085q-.54.078-.965.256a1.6 1.6 0 0 0-.673.497q-.246.312-.246.81 0 .71.486 1.072t1.238.362m-12.105-9.24 2.064 4.027 2.096-4.027h2.55l-3.082 5.455 3.135 5.454H72.43l-2.163-3.927-2.144 3.927h-2.556l3.115-5.454-3.035-5.455Zm-8.334 11.122q-1.538 0-2.656-.681-1.112-.69-1.71-1.946-.6-1.265-.6-2.976 0-1.683.6-2.955.605-1.278 1.69-1.988 1.085-.718 2.55-.718.945 0 1.783.327.845.32 1.491.994.653.675 1.025 1.72.373 1.035.373 2.47v.789h-8.38v-1.733h6.07a2.9 2.9 0 0 0-.3-1.314 2.26 2.26 0 0 0-.818-.916 2.2 2.2 0 0 0-1.212-.334q-.739 0-1.297.384-.56.376-.873.994a3 3 0 0 0-.312 1.342v1.513q0 .953.326 1.634.326.675.912 1.037.585.354 1.37.355.527 0 .953-.157.426-.163.739-.475a2 2 0 0 0 .472-.775l2.25.27a3.84 3.84 0 0 1-.812 1.662q-.592.704-1.518 1.094-.925.383-2.116.383m-18.368-.213V6.703h2.469v6.158h6.317V6.703h2.476v14.545h-2.476v-6.179H43.97v6.18H41.5Z"/><path fill="#DE7C7C" d="M4 32a4 4 0 0 1-4-4V4a4 4 0 0 1 4-4h21.99a4 4 0 0 1 4 4v24a4 4 0 0 1-4 4Z"/><path fill="#F7F7FD" d="M15.372 4a1 1 0 0 1 1-1h7.372a1 1 0 0 1 1 1v4a1 1 0 0 1-1 1h-8.372ZM6 10a1 1 0 0 1 1-1h8.372v6H7a1 1 0 0 1-1-1Zm0 12a1 1 0 0 1 1-1h8.372v6H7a1 1 0 0 1-1-1Zm9.372-7h8.372a1 1 0 0 1 1 1v4a1 1 0 0 1-1 1h-8.372Z"/></svg>