<svg xmlns="http://www.w3.org/2000/svg" width="156.435" height="31.778" fill="none" overflow="visible"><path fill="#111127" d="m149.219 12.839 2.201 4.027 2.238-4.027h2.72l-3.289 5.454 3.346 5.455h-2.706l-2.309-3.927-2.286 3.927h-2.728l3.324-5.454-3.239-5.455Zm-9.103 11.122q-1.598 0-2.77-.703a4.8 4.8 0 0 1-1.818-1.967q-.639-1.265-.639-2.955c0-1.69.213-2.114.639-2.961a4.76 4.76 0 0 1 1.818-1.975q1.172-.703 2.77-.703c1.598 0 1.989.235 2.77.703a4.7 4.7 0 0 1 1.811 1.975q.646 1.27.646 2.961t-.646 2.955a4.73 4.73 0 0 1-1.811 1.967q-1.172.703-2.77.703m.014-2.06q.867 0 1.449-.475.582-.483.866-1.293c.201-.58.3-1.19.292-1.804q0-1.001-.292-1.81-.284-.818-.866-1.3t-1.449-.483q-.888 0-1.477.482-.583.483-.874 1.3a5.5 5.5 0 0 0-.284 1.811q0 .994.284 1.804.291.81.874 1.293.59.476 1.477.476Zm-17.257 1.847V9.204h2.571v5.44h.107q.235-.453.561-.845.362-.455.98-.774.618-.327 1.576-.327 1.264 0 2.28.646 1.023.64 1.62 1.897.603 1.25.603 3.068 0 1.797-.589 3.054-.59 1.257-1.605 1.918-1.015.66-2.301.66-.938 0-1.556-.313a3.2 3.2 0 0 1-.994-.752 5 5 0 0 1-.575-.845h-.15v1.718h-2.528Zm2.521-5.454q0 1.058.299 1.853.305.796.873 1.243.576.44 1.392.44.852.001 1.428-.454.575-.462.866-1.257.299-.803.299-1.825 0-1.016-.292-1.804-.291-.789-.866-1.236-.576-.447-1.435-.448-.823 0-1.399.434-.575.432-.873 1.214-.292.781-.292 1.84m-9.66 5.667q-1.641 0-2.834-.681a4.6 4.6 0 0 1-1.825-1.947q-.639-1.263-.639-2.975 0-1.683.639-2.955.646-1.278 1.804-1.989 1.157-.717 2.72-.717 1.008 0 1.903.327c.597.21 1.14.55 1.591.994q.696.675 1.094 1.719.398 1.037.398 2.471v.789h-8.942v-1.733h6.477a2.8 2.8 0 0 0-.319-1.314 2.33 2.33 0 0 0-.874-.916q-.553-.334-1.293-.334-.788 0-1.385.383a2.65 2.65 0 0 0-.93.995 2.9 2.9 0 0 0-.334 1.342v1.514q0 .951.348 1.633.348.675.973 1.037.626.355 1.463.355.561 0 1.016-.156c.293-.102.561-.264.788-.476q.334-.312.505-.774l2.4.27a3.74 3.74 0 0 1-.866 1.662q-.632.703-1.62 1.094-.987.383-2.258.383Zm-6.236-11.122-3.885 10.91h-2.841l-3.885-10.91h2.741l2.507 8.104h.114l2.514-8.104ZM94.537 23.748V12.839h2.571v10.91h-2.571Zm1.292-12.457a1.5 1.5 0 0 1-1.051-.405 1.3 1.3 0 0 1-.44-.987q0-.583.44-.987c.283-.27.66-.418 1.051-.412q.618 0 1.052.412.44.404.44.987 0 .575-.44.987-.434.405-1.052.405m-3.443 1.548v1.989h-6.27v-1.989Zm-4.722-2.614h2.57v10.242q0 .518.157.795.163.27.426.37t.582.1q.242 0 .44-.036.207-.036.313-.064l.433 2.01q-.205.071-.59.156-.376.085-.922.1-.966.027-1.74-.292a2.7 2.7 0 0 1-1.23-1.008q-.446-.682-.44-1.705V10.226Zm-9.07 13.743q-1.037 0-1.868-.369-.825-.375-1.307-1.108-.476-.732-.476-1.804 0-.922.341-1.527a2.65 2.65 0 0 1 .93-.966 4.7 4.7 0 0 1 1.329-.547q.745-.191 1.541-.277.96-.099 1.555-.177.597-.085.867-.256.276-.177.277-.547v-.042q0-.803-.476-1.243t-1.37-.44q-.945 0-1.5.411-.546.413-.738.973l-2.4-.34q.283-.995.937-1.662.654-.675 1.598-1.009a6.1 6.1 0 0 1 2.088-.34q.789-.001 1.57.184.78.184 1.427.61.647.42 1.037 1.144.398.725.398 1.811v7.301h-2.472V22.25h-.085c-.169.32-.393.608-.66.852q-.42.39-1.059.632-.632.234-1.484.234m.668-1.889q.774 0 1.342-.305.568-.313.874-.824c.206-.335.315-.721.312-1.115v-1.286q-.12.1-.412.185-.284.085-.64.15-.354.063-.702.113l-.604.085q-.53.066-1.03.256a1.7 1.7 0 0 0-.717.497q-.263.312-.263.81 0 .71.519 1.072.517.362 1.32.362ZM68.43 23.961q-1.643 0-2.835-.681a4.6 4.6 0 0 1-1.825-1.947q-.64-1.263-.64-2.975 0-1.683.64-2.955.645-1.278 1.804-1.989 1.157-.717 2.72-.717 1.009 0 1.904.327c.597.211 1.14.55 1.59.994q.698.675 1.094 1.719.398 1.037.398 2.471v.789h-8.942v-1.733h6.478a2.76 2.76 0 0 0-.32-1.314 2.33 2.33 0 0 0-.874-.916q-.554-.334-1.292-.334-.788 0-1.385.383a2.65 2.65 0 0 0-.93.995q-.328.61-.334 1.342v1.514q0 .951.348 1.633.348.675.973 1.037.624.355 1.463.355c.345.005.688-.048 1.015-.156q.455-.163.789-.476c.227-.214.399-.48.504-.774l2.4.27a3.74 3.74 0 0 1-.866 1.662q-.632.703-1.62 1.094-.986.383-2.258.383Zm-12.31-.213V12.839h2.492v1.818h.114q.298-.945 1.022-1.456a2.8 2.8 0 0 1 1.67-.518q.212 0 .475.021.27.014.448.05v2.365a2.7 2.7 0 0 0-.519-.1 5 5 0 0 0-.674-.05q-.704 0-1.265.306-.554.3-.873.831-.32.533-.32 1.229v6.413Zm-2.3-9.638h-2.657a3.3 3.3 0 0 0-.419-1.157 3.1 3.1 0 0 0-1.797-1.4 4.1 4.1 0 0 0-1.242-.184q-1.186 0-2.103.596-.916.59-1.434 1.733-.519 1.137-.519 2.777 0 1.669.519 2.813.525 1.136 1.434 1.719.917.575 2.095.575c.413.004.825-.054 1.222-.17a3.3 3.3 0 0 0 1.03-.519 3.16 3.16 0 0 0 1.215-1.974l2.656.014a5.7 5.7 0 0 1-.647 1.946 5.7 5.7 0 0 1-1.285 1.605q-.795.69-1.861 1.08-1.065.383-2.365.383-1.919 0-3.423-.888-1.506-.888-2.372-2.564Q41 18.82 41 16.475q0-2.35.874-4.02.873-1.676 2.379-2.563t3.409-.888q1.214 0 2.258.34a5.8 5.8 0 0 1 1.861 1.002q.817.653 1.343 1.605.533.945.696 2.16Z"/><path fill="#8754C4" d="M13 1.889c0-1.105.899-2.013 1.995-1.875 8.002 1.006 14.004 7.81 14.004 15.875s-6.002 14.869-14.004 15.875c-1.096.138-1.995-.77-1.995-1.875Z"/><path fill="#C7AFE4" d="M10 6c5.523 0 10 4.477 10 10s-4.477 10-10 10S0 21.523 0 16 4.477 6 10 6"/><path fill="#111127" d="M10 24a8 8 0 1 1 0-16 8 8 0 0 1 0 16m10-8c0-5.523-4.477-10-10-10S0 10.477 0 16s4.477 10 10 10 10-4.477 10-10"/></svg>