<svg xmlns="http://www.w3.org/2000/svg" width="166.001" height="30.345" fill="none" overflow="visible"><path fill="#111127" d="m165.766 9.723-2.343.256a1.9 1.9 0 0 0-.348-.668 1.7 1.7 0 0 0-.654-.504q-.412-.192-1.008-.192-.803 0-1.35.348-.54.348-.532.902a.94.94 0 0 0 .348.774q.362.3 1.193.49l1.861.398q1.548.334 2.301 1.058.76.724.767 1.897a2.97 2.97 0 0 1-.604 1.818q-.59.78-1.641 1.222-1.05.44-2.414.44-2.003 0-3.225-.838-1.22-.846-1.456-2.351l2.507-.242q.171.739.725 1.116.554.375 1.442.376.915 0 1.47-.377.561-.375.561-.93a.97.97 0 0 0-.362-.774q-.355-.306-1.108-.469l-1.861-.39q-1.57-.327-2.323-1.101-.752-.782-.745-1.975-.008-1.009.547-1.747.56-.745 1.555-1.15 1.002-.412 2.308-.412 1.918 0 3.019.816 1.107.817 1.37 2.21Zm-13.837 3.437V6.84h2.571v10.909h-2.493V15.81h-.114a3.3 3.3 0 0 1-1.214 1.499q-.838.582-2.067.582-1.073 0-1.896-.476-.817-.483-1.279-1.399-.46-.924-.461-2.23V6.84h2.571v6.548q0 1.037.568 1.648.569.61 1.491.61.569 0 1.101-.276c.361-.19.663-.475.874-.824q.348-.555.348-1.385Zm-9.597-9.957V17.75h-2.571V3.203ZM127.261 21.84v-15h2.528v1.804h.149q.236-.453.561-.845.363-.455.981-.774.617-.327 1.576-.327 1.264 0 2.28.646 1.023.639 1.619 1.896.604 1.251.604 3.069 0 1.797-.589 3.054-.59 1.257-1.605 1.917-1.017.66-2.302.66-.937 0-1.555-.312a3.2 3.2 0 0 1-.994-.753 5 5 0 0 1-.576-.845h-.106v5.81Zm2.521-9.546q0 1.059.298 1.854.306.796.874 1.243.576.44 1.392.44.852 0 1.428-.454.575-.462.866-1.257.298-.803.298-1.826 0-1.015-.291-1.804-.291-.788-.866-1.235-.576-.448-1.435-.448-.824 0-1.399.433-.576.434-.874 1.215-.291.78-.291 1.84Zm-9.547 5.668q-1.64 0-2.834-.682a4.6 4.6 0 0 1-1.825-1.946q-.639-1.264-.639-2.976 0-1.683.639-2.954.646-1.279 1.804-1.989 1.157-.717 2.72-.717 1.008 0 1.903.326a4.3 4.3 0 0 1 1.591.995q.696.675 1.094 1.719.398 1.036.398 2.471v.788h-8.942v-1.732h6.477a2.76 2.76 0 0 0-.319-1.314 2.33 2.33 0 0 0-.874-.916q-.553-.334-1.293-.334-.788 0-1.384.383a2.65 2.65 0 0 0-.931.994 2.86 2.86 0 0 0-.334 1.343v1.513q0 .952.348 1.633.349.675.973 1.037.626.355 1.463.355.561 0 1.016-.156.455-.164.788-.476.334-.312.505-.774l2.4.27a3.74 3.74 0 0 1-.866 1.662q-.632.702-1.62 1.093-.987.384-2.258.384M113.999 6.84l-3.885 10.909h-2.841l-3.885-10.91h2.741l2.507 8.104h.114l2.514-8.103ZM99.038 17.749V6.839h2.571v10.91h-2.57Zm1.293-12.458a1.5 1.5 0 0 1-1.052-.404 1.3 1.3 0 0 1-.44-.988q0-.582.44-.987c.283-.27.661-.418 1.052-.412q.618 0 1.051.412.44.406.44.987 0 .576-.44.988-.433.404-1.051.404M96.888 6.84v1.988h-6.272V6.84Zm-4.723-2.614h2.57v10.242q0 .517.157.795.163.27.426.37t.583.099q.24 0 .44-.036.205-.035.313-.064l.433 2.01q-.207.072-.59.157-.375.085-.923.099-.966.028-1.74-.291a2.7 2.7 0 0 1-1.229-1.009q-.447-.681-.44-1.704Zm-9.07 13.744q-1.037 0-1.868-.37a3.04 3.04 0 0 1-1.306-1.108q-.476-.732-.476-1.804 0-.924.34-1.527.342-.604.931-.966c.412-.249.86-.434 1.328-.547q.746-.192 1.541-.277.96-.099 1.556-.177.596-.086.866-.256.277-.178.277-.547v-.043q0-.803-.476-1.242-.476-.44-1.37-.44-.945 0-1.499.411-.546.413-.739.973l-2.4-.34q.285-.996.937-1.663a4.1 4.1 0 0 1 1.598-1.008 6.1 6.1 0 0 1 2.088-.341q.79 0 1.57.184.781.185 1.427.611.647.419 1.037 1.144.398.724.398 1.81v7.302h-2.471V16.25h-.086a3.1 3.1 0 0 1-.66.853q-.42.39-1.058.632-.633.234-1.485.234Zm.668-1.89q.774 0 1.342-.305.568-.313.874-.824.312-.512.312-1.115V12.55q-.12.1-.412.185-.284.085-.639.149c-.355.064-.471.08-.703.114l-.604.085q-.53.067-1.03.256a1.7 1.7 0 0 0-.717.497q-.263.312-.263.81 0 .71.519 1.072t1.32.362ZM72.93 17.962q-1.64 0-2.834-.682a4.6 4.6 0 0 1-1.825-1.946q-.64-1.264-.64-2.976 0-1.683.64-2.954.646-1.279 1.804-1.989 1.158-.717 2.72-.717 1.009 0 1.904.326c.597.211 1.14.551 1.59.995q.698.675 1.094 1.719.398 1.036.398 2.471v.788h-8.942v-1.732h6.478a2.76 2.76 0 0 0-.32-1.314 2.33 2.33 0 0 0-.874-.916q-.554-.334-1.292-.334-.788 0-1.385.383a2.65 2.65 0 0 0-.93.994 2.86 2.86 0 0 0-.334 1.343v1.513q0 .952.348 1.633.348.675.973 1.037.624.355 1.463.355c.345.005.688-.048 1.015-.156q.454-.164.789-.476.333-.312.504-.774l2.4.27a3.74 3.74 0 0 1-.866 1.662q-.632.702-1.62 1.093-.986.384-2.258.384m-12.31-.213V6.839h2.493v1.82h.114q.299-.945 1.022-1.457a2.8 2.8 0 0 1 1.67-.518q.212 0 .475.021.27.014.448.05V9.12a2.7 2.7 0 0 0-.519-.1 5 5 0 0 0-.674-.05q-.704 0-1.265.306-.553.299-.873.831-.32.533-.32 1.229v6.413zm-2.299-9.638h-2.658a3.3 3.3 0 0 0-.418-1.158 3.12 3.12 0 0 0-1.797-1.399 4 4 0 0 0-1.243-.184q-1.187 0-2.103.596-.916.589-1.434 1.733-.519 1.137-.519 2.777 0 1.669.519 2.813.525 1.136 1.434 1.718.917.576 2.096.576c.413.003.824-.054 1.221-.17a3.3 3.3 0 0 0 1.03-.52 3.16 3.16 0 0 0 1.215-1.975l2.656.016q-.15 1.036-.647 1.945a5.7 5.7 0 0 1-1.285 1.606q-.795.689-1.86 1.08-1.067.383-2.366.383-1.918 0-3.423-.888t-2.372-2.564-.867-4.02q0-2.35.874-4.02.873-1.676 2.379-2.564 1.506-.887 3.41-.887 1.214 0 2.258.34a5.8 5.8 0 0 1 1.86 1.002q.817.652 1.343 1.605.533.945.696 2.159Z"/><path fill="#F5D6D6" d="M31.953 17.725c.7.546.395 1.665-.485 1.78l-4.202.55a1 1 0 0 1-1.094-1.255l.86-3.156a1 1 0 0 1 1.58-.525ZM7.541 1.281C7.295.429 8.198-.299 8.979.124l3.725 2.02a1 1 0 0 1 .15 1.658l-2.547 2.05a.998.998 0 0 1-1.588-.5l-1.178-4.07Z"/><path fill="#DE7C7C" d="M25.325.153c.763-.472 1.714.223 1.496 1.093l-7.095 28.342c-.23.918-1.489 1.033-1.88.171l-4.758-10.462a1 1 0 0 0-.792-.58L.883 17.361c-.94-.112-1.213-1.346-.408-1.844z"/></svg>