<svg xmlns="http://www.w3.org/2000/svg" width="144.993" height="32" fill="none" overflow="visible"><path fill="#111127" d="M139.183 23.237q-1.286 0-2.301-.66t-1.605-1.918-.589-3.054q0-1.818.596-3.068.604-1.257 1.627-1.896a4.2 4.2 0 0 1 2.279-.646q.96 0 1.577.326.618.32.98.774.363.448.561.846h.107v-5.44h2.578v14.545h-2.529v-1.72h-.156a4.4 4.4 0 0 1-.575.846c-.278.314-.616.57-.994.753q-.618.312-1.556.312m.718-2.109q.816 0 1.392-.44.575-.448.873-1.243t.298-1.854q0-1.058-.298-1.84-.291-.78-.866-1.214-.568-.433-1.399-.433-.86 0-1.435.447-.575.448-.867 1.236-.291.789-.291 1.804 0 1.023.291 1.825.298.796.874 1.258.582.453 1.428.454m-14.381-4.475v6.393h-2.571v-10.91h2.458v1.854h.127c.24-.598.66-1.107 1.201-1.456q.831-.54 2.052-.54 1.13 0 1.968.483a3.25 3.25 0 0 1 1.306 1.4q.47.915.462 2.222v6.947h-2.571v-6.549q0-1.094-.568-1.712-.561-.617-1.556-.617a2.4 2.4 0 0 0-1.2.298c-.348.197-.632.49-.817.845q-.291.555-.291 1.342m-10.916 6.613q-1.037 0-1.868-.37a3.06 3.06 0 0 1-1.307-1.107q-.476-.733-.476-1.804 0-.924.341-1.527.34-.605.93-.966a4.7 4.7 0 0 1 1.329-.547q.76-.195 1.541-.277a63 63 0 0 0 1.555-.178q.597-.085.867-.255.276-.178.277-.547v-.043q0-.803-.476-1.243-.475-.44-1.371-.44-.945 0-1.499.412-.546.411-.738.973l-2.401-.341q.284-.995.938-1.662.653-.675 1.598-1.008a6.1 6.1 0 0 1 2.088-.341c.528 0 1.055.062 1.569.184q.782.185 1.428.611.646.42 1.037 1.143.398.725.398 1.812v7.3h-2.472v-1.498h-.085c-.17.32-.393.608-.661.852q-.419.39-1.058.633-.632.234-1.484.234m.667-1.89q.774 0 1.343-.305.568-.312.873-.824a2.1 2.1 0 0 0 .313-1.115v-1.285q-.121.1-.412.184a6 6 0 0 1-.639.15q-.356.063-.704.113l-.603.085q-.53.066-1.03.256a1.7 1.7 0 0 0-.717.497q-.264.313-.263.81 0 .71.518 1.072.519.363 1.321.363Zm-11.541 1.67v-10.91h2.493v1.819h.114q.298-.945 1.023-1.456a2.8 2.8 0 0 1 1.669-.519q.212 0 .476.021.27.015.447.05v2.365a2.7 2.7 0 0 0-.518-.1 5 5 0 0 0-.675-.049 2.6 2.6 0 0 0-1.264.305 2.2 2.2 0 0 0-.874.831q-.32.533-.32 1.23v6.413Zm-13.03 0V8.5h5.567q1.578 0 2.621.497 1.051.49 1.57 1.343.525.852.525 1.931 0 .888-.341 1.52a2.9 2.9 0 0 1-.916 1.016 3.9 3.9 0 0 1-1.285.561v.142a3.15 3.15 0 0 1 1.484.476 3.3 3.3 0 0 1 1.172 1.207q.454.78.454 1.89 0 1.129-.546 2.03-.547.896-1.648 1.414-1.1.519-2.77.519h-5.888Zm2.634-2.202h2.834q1.434 0 2.067-.547.639-.555.639-1.42a2.18 2.18 0 0 0-1.229-1.989q-.59-.305-1.406-.305h-2.905zm0-6.158h2.607q.681 0 1.228-.248.547-.255.86-.718.32-.468.319-1.108 0-.844-.596-1.392-.59-.546-1.754-.546h-2.664Zm-11.094 8.58q-1.035 0-1.867-.37a3.06 3.06 0 0 1-1.307-1.107q-.476-.733-.476-1.804 0-.924.34-1.527.342-.605.931-.966c.412-.249.86-.434 1.328-.547q.745-.192 1.542-.277a63 63 0 0 0 1.555-.178q.596-.085.866-.255.277-.178.277-.547v-.043q0-.803-.475-1.243-.477-.44-1.371-.44-.945 0-1.499.412-.546.411-.739.973l-2.4-.341q.284-.995.938-1.662.653-.675 1.598-1.008a6.1 6.1 0 0 1 2.088-.341q.787 0 1.57.184.78.185 1.427.611.645.42 1.037 1.143.397.725.397 1.812v7.3h-2.47v-1.498h-.085c-.17.32-.393.608-.661.852q-.42.39-1.058.633-.632.234-1.485.234Zm.668-1.89q.775 0 1.342-.305.569-.312.874-.824.312-.51.312-1.115v-1.285q-.12.1-.412.184a6 6 0 0 1-.639.15q-.354.063-.703.113l-.603.085q-.53.066-1.03.256a1.7 1.7 0 0 0-.718.497q-.263.313-.263.81 0 .71.519 1.072t1.321.363Zm-12.916-9.24 2.202 4.027 2.237-4.027h2.72l-3.288 5.455 3.345 5.455h-2.706l-2.308-3.928-2.287 3.928H67.18l3.324-5.455-3.24-5.455ZM61.1 23.258q-1.642 0-2.835-.681a4.6 4.6 0 0 1-1.825-1.946q-.64-1.265-.64-2.976 0-1.683.64-2.955.645-1.278 1.804-1.988 1.157-.718 2.72-.718 1.008 0 1.904.327c.597.21 1.14.55 1.59.994q.697.675 1.094 1.72.398 1.036.398 2.47v.789h-8.942v-1.733h6.477a2.76 2.76 0 0 0-.32-1.314 2.33 2.33 0 0 0-.873-.916q-.554-.334-1.292-.334-.79 0-1.385.384-.597.376-.93.994c-.22.413-.335.874-.335 1.342v1.513q0 .953.349 1.634.347.675.972 1.037.625.354 1.464.355c.345.004.688-.049 1.015-.157.293-.102.562-.264.789-.475q.333-.313.504-.775l2.4.27a3.75 3.75 0 0 1-.866 1.662q-.632.704-1.62 1.094-.986.383-2.258.383Zm-19.6-.212V8.5h2.635v6.158h6.74V8.5h2.642v14.546h-2.642v-6.18h-6.74v6.18Z"/><path fill="#655FCF" d="M17.121 10.404c5.409.372 9.685 5.057 9.685 10.785 0 5.97-4.646 10.81-10.378 10.811C10.697 32 6.05 27.16 6.05 21.19c0-1.447.274-2.827.77-4.088.601.13 1.215.196 1.831.196 4.175 0 7.658-2.959 8.47-6.894M8.651 0a8.65 8.65 0 0 1 8.47 10.404q-.344-.024-.693-.026c-4.343 0-8.061 2.78-9.609 6.724A8.649 8.649 0 0 1 8.651 0"/></svg>