<svg xmlns="http://www.w3.org/2000/svg" width="138.845" height="25" fill="none" overflow="visible"><path fill="#111127" d="M133.666 20.968a3.7 3.7 0 0 1-1.679-.369 2.84 2.84 0 0 1-1.175-1.108q-.428-.732-.428-1.804 0-.924.307-1.527.306-.603.836-.966a4 4 0 0 1 1.194-.547q.67-.192 1.386-.277.7-.078 1.398-.177.537-.085.779-.256.249-.177.249-.547v-.042q0-.804-.427-1.243-.428-.44-1.233-.44-.849 0-1.347.411a2.04 2.04 0 0 0-.664.973l-2.159-.34q.257-.996.843-1.663.588-.675 1.437-1.008a5 5 0 0 1 1.877-.341q.709 0 1.412.185c.462.12.898.327 1.283.61q.582.42.932 1.144.358.725.358 1.811v7.301h-2.222V19.25h-.077q-.21.454-.594.852a2.8 2.8 0 0 1-.951.632q-.569.234-1.335.234m.601-1.889q.696 0 1.206-.305.512-.313.786-.824.28-.512.281-1.115v-1.286q-.109.1-.371.185-.255.085-.574.15-.32.063-.632.113l-.543.085c-.318.045-.63.131-.926.256a1.55 1.55 0 0 0-.645.497q-.236.312-.236.81 0 .71.466 1.072.467.362 1.188.362m-11.613-9.24 1.98 4.027 2.011-4.027h2.446l-2.957 5.455 3.008 5.454h-2.433l-2.075-3.927-2.056 3.927h-2.452l2.988-5.454-2.912-5.455Zm-7.995 11.122q-1.476 0-2.548-.682-1.066-.689-1.641-1.946-.575-1.263-.575-2.976 0-1.683.575-2.954.58-1.278 1.622-1.989 1.041-.717 2.445-.717.907 0 1.712.327.81.32 1.43.994.626.675.983 1.719.358 1.037.358 2.471v.789h-8.039v-1.733h5.823q-.006-.739-.287-1.314a2.24 2.24 0 0 0-.786-.916 2.04 2.04 0 0 0-1.162-.334q-.708 0-1.245.383c-.36.254-.648.597-.836.995a3.1 3.1 0 0 0-.301 1.342v1.513q0 .952.313 1.633.313.675.875 1.037.562.355 1.316.355.504 0 .913-.156c.267-.106.509-.268.708-.476q.301-.312.454-.774l2.158.27a3.9 3.9 0 0 1-.779 1.662c-.39.477-.889.853-1.456 1.094q-.888.383-2.03.383M101.6 14.356v6.392h-2.311V6.204h2.26v5.49h.115q.345-.924 1.066-1.456.729-.54 1.852-.54 1.022 0 1.782.476t1.175 1.392q.421.916.421 2.237v6.946h-2.311v-6.548q0-1.101-.511-1.712-.505-.618-1.418-.618-.614 0-1.098.299a2 2 0 0 0-.754.845q-.268.555-.268 1.342Zm-8.628 6.605q-1.476 0-2.548-.682-1.066-.689-1.641-1.946-.575-1.263-.575-2.976 0-1.683.575-2.954.58-1.278 1.622-1.989 1.041-.717 2.445-.717.907 0 1.712.327.81.32 1.43.994.626.675.983 1.719.358 1.037.358 2.471v.789h-8.04v-1.733h5.824q-.006-.739-.287-1.314a2.24 2.24 0 0 0-.785-.916 2.03 2.03 0 0 0-1.163-.334q-.708 0-1.245.383c-.36.254-.648.597-.836.995a3.1 3.1 0 0 0-.3 1.342v1.513q0 .952.312 1.633.313.675.875 1.037.562.355 1.316.355.504 0 .913-.156c.268-.106.51-.268.709-.476q.3-.312.453-.774l2.158.27a3.9 3.9 0 0 1-.779 1.662c-.39.477-.889.852-1.456 1.094q-.887.383-2.03.383M86.801 9.839v1.989h-5.638V9.839Zm-4.246-2.614h2.312v10.242q0 .518.14.795.147.27.383.37t.524.1q.217 0 .396-.036.142-.025.28-.064l.39 2.01q-.185.071-.53.156-.338.085-.83.1-.868.027-1.564-.292a2.5 2.5 0 0 1-1.105-1.008q-.402-.682-.396-1.705zm-5.34 13.523V9.839h2.312v10.91h-2.312Zm1.162-12.457q-.548 0-.945-.405a1.37 1.37 0 0 1-.396-.987q0-.583.396-.987.397-.412.945-.412.556 0 .945.412.396.404.396.987 0 .574-.396.987-.39.405-.945.405m-9.807 6.065v6.392h-2.312V9.839h2.21v1.854h.114a3.07 3.07 0 0 1 1.08-1.456q.747-.54 1.845-.54 1.015 0 1.769.483.76.482 1.175 1.4.42.914.415 2.222v6.946h-2.312V14.2q0-1.094-.51-1.712-.505-.618-1.4-.618-.606 0-1.078.299a2 2 0 0 0-.735.845q-.261.554-.261 1.342m-7.001 6.392V9.839h2.311v10.91h-2.311Zm1.162-12.457q-.549 0-.945-.405a1.37 1.37 0 0 1-.396-.987q0-.583.396-.987.396-.412.945-.412.556 0 .945.412.396.404.396.987 0 .574-.396.987-.39.405-.945.405m-2.972 1.548v1.989h-5.798V9.839Zm-4.349 10.91V8.809q0-1.1.409-1.832c.254-.466.64-.846 1.11-1.094q.697-.362 1.546-.362.6 0 1.067.106.465.106.69.192l-.46 1.989a4 4 0 0 0-.37-.1 2 2 0 0 0-.499-.056q-.645 0-.913.348-.262.34-.262.98v11.768H55.41Zm-9.265-6.393v6.392h-2.31V9.839h2.209v1.854h.115a3.07 3.07 0 0 1 1.079-1.456q.747-.54 1.845-.54 1.016 0 1.77.483.759.482 1.174 1.4.422.914.415 2.222v6.946h-2.311V14.2q0-1.094-.511-1.712-.505-.618-1.399-.618-.606 0-1.079.299-.465.291-.734.845-.262.554-.262 1.342ZM41.37 6.203v14.545H39V6.204h2.37Z"/><path fill="#D2D0F1" d="M14 2a2 2 0 1 1 4 0 2 2 0 1 1-4 0"/><path fill="#B7B4E9" d="M9.5 9a2 2 0 0 1 2-2h9a2 2 0 1 1 0 4h-9a2 2 0 0 1-2-2"/><path fill="#9591DE" d="M3 16a2 2 0 0 1 2-2h8a2 2 0 1 1 0 4H5a2 2 0 0 1-2-2m14 0a2 2 0 0 1 2-2h8a2 2 0 1 1 0 4h-8a2 2 0 0 1-2-2"/><path fill="#655FCF" d="M0 23a2 2 0 0 1 2-2h28a2 2 0 1 1 0 4H2a2 2 0 0 1-2-2"/></svg>