<svg xmlns="http://www.w3.org/2000/svg" width="203" height="211" fill="none"><g clip-path="url(#a)"><path fill="#FFCC4E" d="M77.398 131.923c.477.477 1.002.93 1.527 1.359-.096-.071-.215-.19-.31-.262a18 18 0 0 0-1.217-1.097"/><path fill="#FF8F64" d="M77.398 131.923c.478.477 1.002.93 1.527 1.36-.096-.072-.215-.191-.31-.263a18 18 0 0 0-1.217-1.097m-.071-.071q.68.536 1.288 1.144c.095.096.215.191.31.287a19 19 0 0 1-1.598-1.431"/><path fill="#FFCC4E" d="M73.892 127.415a22 22 0 0 0 1.885 2.743 16.4 16.4 0 0 1 2.504 2.481c-.19-.239-.406-.597-.573-.859a15.7 15.7 0 0 0-3.816-4.365"/><path fill="#FF8F64" d="M73.892 127.415a22 22 0 0 0 1.885 2.743 16.4 16.4 0 0 1 2.504 2.48c-.19-.238-.406-.596-.573-.858a15.7 15.7 0 0 0-3.816-4.365m-.047-.096c1.621 1.288 2.91 2.791 3.84 4.437.381.62.381.62.62.906a15.7 15.7 0 0 0-2.457-2.409c-.74-.93-1.431-1.908-2.004-2.934Z"/><path fill="#FFCC4E" d="M71.603 122c.31 1.121.715 2.194 1.168 3.244 2.051 1.622 3.53 3.53 4.46 5.653-.143-.382-.334-.883-.477-1.264l-.119-.43c-1.145-3.172-1.932-4.484-5.032-7.203"/><path fill="#FF8F64" d="M71.603 122c.31 1.121.715 2.194 1.168 3.244 2.051 1.622 3.53 3.53 4.46 5.653-.143-.382-.334-.883-.477-1.264l-.119-.43c-1.145-3.172-1.932-4.484-5.032-7.203m-.024-.119c2.838 2.528 3.84 3.792 5.056 7.251l.143.477c.143.405.334.93.501 1.312-.954-2.099-2.409-3.984-4.436-5.582a24 24 0 0 1-1.264-3.458"/><path fill="#FFCC4E" d="M70.577 115.895c.071 1.24.215 2.432.43 3.625 2.194 1.956 4.269 3.792 5.246 8.086l-.143-.883c-.047-.572-.143-1.312-.19-1.884-.263-2.147-.692-5.104-5.343-8.944"/><path fill="#FF8F64" d="M70.577 115.895c.071 1.24.215 2.433.43 3.625 2.194 1.956 4.269 3.792 5.246 8.086l-.143-.883c-.047-.572-.143-1.312-.19-1.884-.263-2.147-.692-5.104-5.343-8.944m0-.12c3.434 2.743 5.176 5.82 5.367 8.969.047.596.119 1.383.19 1.979l.167.954c-.572-2.933-2.29-5.676-5.247-8.038a29.5 29.5 0 0 1-.477-3.864"/><path fill="#FFCC4E" d="M70.863 109.335c-.19 1.312-.286 2.6-.31 3.864 3.459 3.029 5.152 5.2 5.367 9.326.071-1.121.19-2.6.31-3.721.405-2.958-1.312-6.249-5.367-9.469"/><path fill="#FF8F64" d="M70.863 109.335c-.19 1.312-.286 2.6-.31 3.864 3.459 3.03 5.152 5.2 5.367 9.326a95 95 0 0 1 .31-3.72c.405-2.958-1.312-6.25-5.367-9.47m.024-.143c4.079 3.244 5.772 6.512 5.367 9.469-.12 1.193-.287 2.767-.334 3.96.071-3.149-1.67-6.369-5.367-9.326.024-1.336.12-2.695.334-4.103"/><path fill="#FFCC4E" d="M72.461 102.49a37 37 0 0 0-1.097 3.983c4.389 3.769 5.748 6.106 5.39 9.326.263-1.001.573-2.337.883-3.339l.358-1.073c.238-1.336.715-3.816-5.534-8.897"/><path fill="#FF8F64" d="M72.461 102.49a37 37 0 0 0-1.097 3.983c4.389 3.769 5.748 6.106 5.39 9.326.263-1.002.573-2.337.883-3.339l.358-1.074c.238-1.335.715-3.816-5.534-8.896m.048-.143c2.409 2.027 6.464 5.438 5.533 8.872l-.405 1.241c-.286 1.049-.668 2.433-.906 3.482.572-2.719-1.145-5.963-5.39-9.35.31-1.383.69-2.814 1.168-4.245"/><path fill="#FFCC4E" d="M75.443 95.597a51 51 0 0 0-1.909 4.007c4.628 3.697 6.44 6.583 5.701 8.396l.668-1.551a140 140 0 0 1 1.622-3.291c.405-1.527-1.312-3.65-6.082-7.561"/><path fill="#FF8F64" d="M75.443 95.596a51 51 0 0 0-1.909 4.007c4.628 3.697 6.44 6.583 5.701 8.396l.668-1.55a141 141 0 0 1 1.622-3.292c.405-1.526-1.312-3.65-6.082-7.56Zm.071-.143c4.127 3.387 6.583 5.82 6.13 7.537-.525 1.026-1.24 2.409-1.717 3.459l-.74 1.693c.43-1.908-.381-4.055-5.7-8.42a49 49 0 0 1 2.027-4.269"/><path fill="#FFCC4E" d="M78.806 90.23a45 45 0 0 0-2.48 3.793c4.817 3.84 6.845 6.273 6.32 7.203.906-1.455 2.123-3.363 3.1-4.77.191-.287-2.075-2.362-6.94-6.225Z"/><path fill="#FF8F64" d="M78.806 90.23a45 45 0 0 0-2.48 3.793c4.817 3.84 6.845 6.273 6.32 7.203.906-1.455 2.123-3.363 3.1-4.77.191-.286-2.075-2.362-6.94-6.225Zm.071-.119c4.866 3.888 7.156 5.94 6.965 6.202-1.002 1.478-2.338 3.482-3.268 5.009.549-.931-1.479-3.387-6.297-7.228a46 46 0 0 1 2.6-3.983"/><path fill="#FFCC4E" d="M83.743 84.435a43 43 0 0 0-2.958 3.243c4.866 3.888 7.323 5.7 7.442 5.582.906-1.026 2.099-2.41 3.053-3.387l.668-.668c-.406.167-1.455.62-8.205-4.77"/><path fill="#FF8F64" d="M83.743 84.434a43 43 0 0 0-2.958 3.244c4.866 3.888 7.323 5.7 7.442 5.581.906-1.025 2.099-2.409 3.053-3.387l.668-.667c-.406.166-1.455.62-8.205-4.77Zm.095-.095c4.842 3.84 7.585 5.367 8.23 4.722l-.788.811c-.954 1.05-2.242 2.433-3.172 3.53-.096.096-2.552-1.74-7.418-5.605a48 48 0 0 1 3.148-3.458"/><path fill="#FFCC4E" d="M89.348 79.688a43 43 0 0 0-3.315 2.623c4.77 3.793 7.728 5.128 8.753 4.246l1.55-1.288 2.481-1.885c-1.622 1.121-4.842 0-9.469-3.697Z"/><path fill="#FF8F64" d="M89.348 79.688a43 43 0 0 0-3.315 2.623c4.77 3.793 7.728 5.128 8.753 4.246l1.55-1.288 2.481-1.884c-1.622 1.12-4.842 0-9.469-3.697m.096-.072c4.627 3.697 7.847 4.818 9.469 3.673-.787.597-1.837 1.36-2.6 1.98l-1.67 1.407c-1.002.859-3.935-.477-8.73-4.27a43 43 0 0 1 3.53-2.79Z"/><path fill="#FFCC4E" d="M95.382 76.086a40 40 0 0 0-3.553 1.956c4.531 3.601 7.895 4.627 9.874 3.41 1.193-.667 2.767-1.574 3.983-2.17-2.48 1.169-6.01.215-10.304-3.196"/><path fill="#FF8F64" d="M95.382 76.087a40 40 0 0 0-3.553 1.956c4.531 3.601 7.895 4.627 9.874 3.41 1.193-.668 2.767-1.574 3.983-2.17-2.48 1.169-6.01.215-10.304-3.196m.12-.048c4.293 3.41 7.823 4.365 10.304 3.172a119 119 0 0 0-4.222 2.314c-1.956 1.216-5.343.19-9.875-3.41a46 46 0 0 1 3.793-2.076"/><path fill="#FFCC4E" d="M101.679 73.726c-1.24.334-2.456.739-3.673 1.216 4.079 3.244 7.657 4.198 10.423 3.125.859-.31 2.004-.74 2.886-1.002l.692-.191c-3.005.81-6.559-.167-10.328-3.148"/><path fill="#FF8F64" d="M101.679 73.725c-1.24.334-2.456.74-3.673 1.217 4.079 3.244 7.657 4.198 10.423 3.124.859-.31 2.004-.739 2.886-1.001l.692-.191c-3.005.81-6.559-.167-10.328-3.149m.12-.047c3.744 2.981 7.274 3.935 10.327 3.148l-.811.215c-.906.31-2.122.692-3.005 1.05-2.743 1.073-6.321.142-10.423-3.125a44 44 0 0 1 3.912-1.288"/><path fill="#FFCC4E" d="M108 72.676a33 33 0 0 0-3.673.43c2.385 1.716 5.366 3.863 9.994 3.22l1.097-.168c.525-.048 1.192-.143 1.717-.167-3.005.143-6.106-.906-9.135-3.315"/><path fill="#FF8F64" d="M108 72.676a33 33 0 0 0-3.673.43c2.385 1.716 5.366 3.863 9.994 3.22l1.097-.168c.525-.048 1.192-.143 1.717-.167-3.005.143-6.106-.906-9.135-3.315m.119 0c2.815 2.003 4.961 3.315 9.088 3.315-.549.048-1.264.096-1.789.167l-1.193.19c-3.1.573-6.535-.428-10.017-3.219a32 32 0 0 1 3.911-.453"/><path fill="#FFCC4E" d="M114.154 73.081a25 25 0 0 0-3.53-.405c2.647 2.123 5.462 3.172 8.252 3.315.549.048 1.288.12 1.837.215-1.67-.43-3.53-.93-5.2-2.123-.405-.31-.906-.81-1.359-1.002"/><path fill="#FF8F64" d="M114.154 73.081a25 25 0 0 0-3.53-.405c2.647 2.123 5.462 3.172 8.252 3.315.549.048 1.288.12 1.837.215-1.67-.43-3.53-.93-5.2-2.123-.405-.31-.906-.81-1.359-1.002m.095.024c2.051 1.622 4.246 2.648 6.512 3.1-1.217-.19-1.241-.19-1.956-.214-2.815-.12-5.629-1.192-8.301-3.315a24 24 0 0 1 3.745.43Z"/><path fill="#FFCC4E" d="M119.878 74.99c-.262-.12-.501-.239-.763-.358a23 23 0 0 0-2.505-.954c1.599 1.264 3.316 2.17 5.081 2.719l.858.31.215.095a14.2 14.2 0 0 1-2.886-1.812"/><path fill="#FF8F64" d="M119.878 74.99c-.262-.12-.501-.24-.763-.358a23 23 0 0 0-2.505-.954c1.599 1.264 3.316 2.17 5.081 2.719.262.095.596.214.858.31l.215.095a14.2 14.2 0 0 1-2.886-1.813Zm.096.047a14.5 14.5 0 0 0 2.79 1.789l-.238-.12c-.263-.095-.62-.238-.883-.333a15.2 15.2 0 0 1-5.152-2.743 20 20 0 0 1 2.6.978c.31.167.596.286.883.43Z"/><path fill="#FFCC4E" d="M122.025 76.23c.405.31.811.62 1.216.882.096.072.215.143.286.215-.453-.382-.978-.74-1.502-1.097"/><path fill="#FF8F64" d="M122.025 76.23c.405.31.811.62 1.216.882.096.071.215.143.286.215-.453-.382-.978-.74-1.502-1.098Zm-.096-.048a15 15 0 0 1 1.598 1.168c-.095-.071-.214-.167-.31-.214-.429-.31-.858-.62-1.288-.954"/><path fill="#FFCC4E" d="M33.13 144.064a43 43 0 0 0 3.124 2.767c13.047-15.909 32.057-21.992 42.67-13.548a21 21 0 0 1-1.526-1.36c-10.614-8.443-30.339-2.981-44.268 12.141"/><path fill="#FF8F64" d="M33.13 144.063a43 43 0 0 0 3.124 2.767c13.047-15.909 32.057-21.991 42.67-13.548a21 21 0 0 1-1.526-1.359c-10.614-8.444-30.339-2.982-44.268 12.14m-.477.215c13.977-15.361 33.965-20.942 44.674-12.427.5.501 1.05.978 1.598 1.431-10.686-8.515-29.934-2.266-42.98 13.929a43 43 0 0 1-3.292-2.933"/><path fill="#FFCC4E" d="M25.998 134.857a43 43 0 0 0 3.864 5.605c14.86-14.12 35.324-18.748 45.938-10.304a21.5 21.5 0 0 1-1.884-2.743c-10.638-8.444-31.985-5.104-47.918 7.442"/><path fill="#FF8F64" d="M25.998 134.856a43 43 0 0 0 3.864 5.605c14.86-14.12 35.324-18.747 45.938-10.303a21.5 21.5 0 0 1-1.884-2.743c-10.638-8.444-31.985-5.105-47.918 7.441m-.5.096c16.004-12.737 37.637-16.172 48.346-7.657a24.5 24.5 0 0 0 2.004 2.934c-10.686-8.515-31.365-3.697-46.224 10.733a42.5 42.5 0 0 1-4.127-6.01Z"/><path fill="#FFCC4E" d="M21.347 123.813a50.5 50.5 0 0 0 2.385 6.607c16.577-11.282 38.425-13.643 49.04-5.2a25 25 0 0 1-1.17-3.243c-10.614-8.42-33.01-7.585-50.255 1.836"/><path fill="#FF8F64" d="M21.347 123.813a50.5 50.5 0 0 0 2.385 6.607c16.577-11.282 38.425-13.643 49.04-5.2a25 25 0 0 1-1.17-3.243c-10.614-8.42-33.01-7.585-50.255 1.836m-.477 0c17.316-9.564 40.023-10.447 50.709-1.932a27 27 0 0 0 1.24 3.459c-10.686-8.515-32.796-6.011-49.397 5.557a52 52 0 0 1-2.552-7.084"/><path fill="#FFCC4E" d="M19.272 111.387a62 62 0 0 0 .883 7.37c17.578-7.99 40.261-7.68 50.875.763a30 30 0 0 1-.43-3.625c-10.613-8.444-33.51-10.423-51.328-4.508"/><path fill="#FF8F64" d="M19.272 111.387c.143 2.504.453 4.984.883 7.37 17.578-7.991 40.261-7.681 50.875.763a30 30 0 0 1-.43-3.626c-10.613-8.443-33.51-10.423-51.328-4.507m-.453-.096c17.912-6.01 41.072-4.031 51.758 4.484.071 1.312.238 2.6.477 3.84-10.686-8.515-33.63-8.706-51.281-.453a60 60 0 0 1-.954-7.871"/><path fill="#FFCC4E" d="M19.82 97.982c-.357 2.671-.596 5.295-.643 7.871 17.864-4.365 40.762-1.121 51.376 7.322.024-1.264.143-2.552.31-3.864-10.614-8.443-33.368-13.452-51.042-11.329Z"/><path fill="#FF8F64" d="M19.82 97.982c-.357 2.671-.596 5.295-.643 7.871 17.864-4.365 40.762-1.121 51.376 7.322.024-1.264.143-2.552.31-3.864-10.614-8.443-33.368-13.452-51.042-11.33Zm-.381-.19c17.722-2.195 40.739 2.909 51.448 11.424a35 35 0 0 0-.334 4.102c-10.685-8.515-33.87-11.687-51.806-7.083.048-2.791.287-5.606.692-8.444Z"/><path fill="#FFCC4E" d="M23.112 84.053a81 81 0 0 0-2.242 8.133c18.7-.167 38.997 5.581 50.518 14.287a37 37 0 0 1 1.097-3.983C58.842 92.21 37.852 85.818 23.112 84.053"/><path fill="#FF8F64" d="M23.112 84.053a81 81 0 0 0-2.242 8.134c18.7-.167 38.998 5.58 50.518 14.287a37 37 0 0 1 1.097-3.983c-13.643-10.28-34.633-16.673-49.373-18.438m-.334-.31c16.768 1.789 39.022 10.113 49.73 18.628a42 42 0 0 0-1.168 4.246c-10.685-8.515-33.488-14.836-50.947-14.144a79 79 0 0 1 2.385-8.73"/><path fill="#FFCC4E" d="M29.17 69.98a90 90 0 0 0-3.864 8.158c16.148 3.458 37.638 12.999 48.252 21.442a44 44 0 0 1 1.908-4.007c-10.637-8.42-31.245-19.82-46.295-25.592Z"/><path fill="#FF8F64" d="M29.17 69.98a90 90 0 0 0-3.864 8.158c16.148 3.458 37.638 12.999 48.252 21.442a44 44 0 0 1 1.908-4.007c-10.637-8.42-31.245-19.82-46.295-25.592Zm-.214-.405c15.026 5.796 35.873 17.364 46.558 25.88a46 46 0 0 0-2.027 4.269C62.8 91.209 41 81.644 24.782 78.329a94 94 0 0 1 4.174-8.754"/><path fill="#FFCC4E" d="M35.992 59.032a96 96 0 0 0-5.056 7.752c14.548 6.655 34.75 18.771 45.364 27.238a42 42 0 0 1 2.48-3.792c-10.59-8.443-29.67-22.349-42.789-31.198Z"/><path fill="#FF8F64" d="M35.992 59.032a96 96 0 0 0-5.056 7.752c14.548 6.655 34.75 18.771 45.364 27.239a42 42 0 0 1 2.48-3.793c-10.59-8.443-29.67-22.349-42.789-31.198Zm-.12-.453c13.072 8.897 32.32 22.993 43.03 31.508a43 43 0 0 0-2.6 4.007C65.615 85.58 45.126 73.367 30.53 66.784a95 95 0 0 1 5.343-8.205Z"/><path fill="#FFCC4E" d="M46.057 47.25c-2.099 2.075-4.102 4.293-6.034 6.607C52.02 64.16 70.171 79.235 80.761 87.678a48 48 0 0 1 2.958-3.243C73.13 75.99 56.338 59.415 46.057 47.25"/><path fill="#FF8F64" d="M46.057 47.25c-2.099 2.075-4.102 4.293-6.034 6.607C52.02 64.16 70.171 79.235 80.761 87.678a48 48 0 0 1 2.958-3.243C73.13 75.99 56.337 59.415 46.057 47.25m-.023-.501c10.208 12.26 27.119 29.075 37.804 37.59a48 48 0 0 0-3.148 3.459c-10.686-8.515-29.1-23.709-41.12-33.965 2.051-2.48 4.198-4.866 6.464-7.084"/><path fill="#FFCC4E" d="M57.482 37.566a89 89 0 0 0-6.773 5.343c8.968 13.38 24.686 30.936 35.3 39.403a49 49 0 0 1 3.315-2.624c-10.59-8.443-24.782-27.214-31.842-42.122"/><path fill="#FF8F64" d="M57.482 37.566a89 89 0 0 0-6.773 5.343c8.968 13.38 24.686 30.936 35.3 39.403a48 48 0 0 1 3.315-2.624c-10.59-8.443-24.782-27.214-31.842-42.122m.072-.5c6.94 15.002 21.204 34.036 31.89 42.55a43 43 0 0 0-3.53 2.791C75.227 73.892 59.27 56.171 50.278 42.79a91 91 0 0 1 7.275-5.725Z"/><path fill="#FFCC4E" d="M69.838 30.22c-2.457 1.192-4.89 2.504-7.251 3.983 5.629 15.837 18.651 35.396 29.266 43.84a47 47 0 0 1 3.553-1.957c-10.614-8.443-21.99-28.884-25.569-45.866Z"/><path fill="#FF8F64" d="M69.838 30.22c-2.457 1.193-4.89 2.505-7.251 3.983 5.629 15.838 18.651 35.396 29.266 43.84a47 47 0 0 1 3.553-1.956c-10.614-8.444-21.99-28.885-25.569-45.867Zm.143-.525C73.39 46.773 84.816 67.524 95.5 76.04a42 42 0 0 0-3.792 2.075C81.024 69.599 67.81 49.85 62.205 33.964a86 86 0 0 1 7.776-4.269"/><path fill="#FFCC4E" d="M82.67 25.401a69 69 0 0 0-7.49 2.48c2.075 17.627 12.236 38.617 22.826 47.06a37 37 0 0 1 3.673-1.216C91.089 65.28 82.622 43.719 82.669 25.4Z"/><path fill="#FF8F64" d="M82.67 25.402a69 69 0 0 0-7.49 2.48c2.075 17.627 12.236 38.616 22.826 47.06a37 37 0 0 1 3.673-1.217c-10.59-8.443-19.057-30.005-19.01-48.323Zm.238-.525c-.238 18.437 8.205 40.285 18.891 48.8a40 40 0 0 0-3.912 1.288C87.2 66.45 76.897 45.222 74.87 27.525a88 88 0 0 1 8.038-2.648"/><path fill="#FFCC4E" d="M95.55 23.28a62 62 0 0 0-7.466.882c-1.574 18.676 5.653 40.5 16.267 48.943a32 32 0 0 1 3.673-.43C97.41 64.234 91.876 42.219 95.549 23.28Z"/><path fill="#FF8F64" d="M95.55 23.28a62 62 0 0 0-7.466.882c-1.574 18.676 5.653 40.5 16.267 48.943a32 32 0 0 1 3.673-.429C97.41 64.232 91.876 42.217 95.549 23.279Zm.333-.454C91.972 41.86 97.433 64.185 108.12 72.7a32 32 0 0 0-3.911.453C93.522 64.638 86.2 42.528 87.869 23.78a55 55 0 0 1 8.014-.954"/><path fill="#FFCC4E" d="M108.072 24.09c-2.362-.453-4.771-.716-7.204-.835-5.175 18.938-.858 40.977 9.756 49.42 1.192.048 2.385.191 3.53.406-10.614-8.444-13.286-30.292-6.082-48.991"/><path fill="#FF8F64" d="M108.072 24.09c-2.362-.453-4.771-.716-7.204-.835-5.175 18.938-.858 40.977 9.756 49.42 1.192.048 2.385.191 3.53.406-10.614-8.444-13.286-30.292-6.082-48.991m.405-.406c-7.489 18.795-4.913 40.906 5.772 49.42a24.6 24.6 0 0 0-3.768-.429c-10.686-8.515-15.05-30.84-9.732-49.873 2.624.095 5.2.381 7.728.882"/><path fill="#FFCC4E" d="M119.759 28.002a32 32 0 0 0-1.574-.74 49 49 0 0 0-5.105-1.932c-8.61 18.342-7.084 39.904 3.507 48.347a19 19 0 0 1 2.504.954c.262.12.525.239.763.358-10.59-8.443-10.59-29.385-.095-46.988Z"/><path fill="#FF8F64" d="M119.759 28.001c-.525-.262-1.026-.5-1.574-.739a49 49 0 0 0-5.105-1.932c-8.61 18.342-7.084 39.904 3.507 48.347a19 19 0 0 1 2.504.954c.262.12.525.239.763.358-10.59-8.444-10.59-29.385-.095-46.988m.453-.334c-10.805 17.65-10.924 38.855-.239 47.37-.286-.143-.572-.287-.858-.406a21.5 21.5 0 0 0-2.6-.978c-10.686-8.515-12.212-30.363-3.411-48.824a46 46 0 0 1 5.367 2.004c.572.262 1.169.548 1.741.834"/><path fill="#FFCC4E" d="M127.248 32.748a43 43 0 0 0-3.1-2.242c-11.735 16.887-12.737 37.28-2.123 45.723.524.334 1.025.716 1.526 1.097-10.614-8.443-8.92-28.311 3.697-44.578"/><path fill="#FF8F64" d="M127.248 32.748a43 43 0 0 0-3.1-2.242c-11.735 16.887-12.737 37.28-2.123 45.724.524.334 1.025.715 1.526 1.097-10.614-8.444-8.92-28.312 3.697-44.579m.286-.381c-12.879 16.338-14.692 36.445-4.007 44.96a39 39 0 0 0-1.598-1.169c-10.685-8.515-9.636-29.194 2.314-46.177 1.145.74 2.242 1.55 3.291 2.386"/><path fill="#FFCC4E" d="M24.233 51.972c-2.194 3.244-5.08 7.585-7.108 10.924.668-1.145 5.224 0 13.262 3.65a98 98 0 0 1 5.104-7.848c-7.18-4.818-10.995-7.084-11.258-6.726"/><path fill="#FF8F64" d="M24.233 51.972c-2.194 3.244-5.08 7.585-7.108 10.924.668-1.145 5.224 0 13.262 3.65a98 98 0 0 1 5.104-7.848c-7.18-4.818-10.995-7.084-11.258-6.726m.263-.334c.214-.334 4.03 1.956 11.186 6.822a94 94 0 0 0-5.367 8.253c-8.062-3.626-12.617-4.747-13.285-3.578 2.147-3.506 5.128-8.11 7.466-11.497"/><path fill="#FFCC4E" d="m38.401 35.395-1.55 1.575c-2.1 2.29-4.938 5.343-6.941 7.728-.143.143 3.125 3.124 9.66 8.777 1.956-2.337 3.983-4.58 6.106-6.678-5.63-6.846-7.824-10.233-7.275-11.401Z"/><path fill="#FF8F64" d="m38.401 35.396-1.55 1.574c-2.1 2.29-4.938 5.343-6.941 7.728-.143.143 3.125 3.124 9.66 8.777 1.956-2.337 3.983-4.58 6.106-6.678-5.63-6.846-7.824-10.233-7.275-11.401m.286-.287c-.787.764 1.598 4.723 7.204 11.473a98 98 0 0 0-6.512 7.108c-6.583-5.605-9.875-8.563-9.755-8.682 2.146-2.433 4.985-5.7 7.203-8.038z"/><path fill="#FFCC4E" d="m54.644 21.633-6.035 4.58-3.649 3.052c-1.288 1.098.453 5.653 5.415 13.119a91 91 0 0 1 6.845-5.415c-3.96-8.49-4.675-13.857-2.576-15.336"/><path fill="#FF8F64" d="m54.644 21.634-6.034 4.58-3.65 3.052c-1.288 1.097.453 5.653 5.415 13.119a91 91 0 0 1 6.845-5.415c-3.96-8.491-4.675-13.858-2.576-15.336m.334-.215c-2.123 1.479-1.455 6.87 2.48 15.432a92 92 0 0 0-7.298 5.748c-4.985-7.441-6.75-11.973-5.486-13.047l3.96-3.315c1.884-1.455 4.388-3.435 6.344-4.818"/><path fill="#FFCC4E" d="M72.7 10.9c-3.244 1.694-7.561 4.008-10.71 5.868-2.719 1.67-2.814 7.585.358 16.815a89 89 0 0 1 7.346-4.03C67.644 19.295 68.98 12.688 72.7 10.9"/><path fill="#FF8F64" d="M72.7 10.9c-3.244 1.694-7.561 4.007-10.71 5.868-2.719 1.67-2.814 7.585.358 16.815a89 89 0 0 1 7.346-4.03C67.644 19.295 68.98 12.688 72.7 10.9m.357-.167c-3.744 1.79-5.128 8.42-3.1 18.724a87 87 0 0 0-7.824 4.27c-3.22-9.207-3.172-15.099-.477-16.744 3.363-1.956 7.92-4.485 11.401-6.25"/><path fill="#FFCC4E" d="m92.33 3.554-2.457.691c-2.743.907-6.392 2.1-9.112 3.125-4.484 1.741-6.821 8.801-5.652 19.82 2.504-.977 5.032-1.836 7.585-2.504.166-12.021 4.007-19.63 9.635-21.132Z"/><path fill="#FF8F64" d="m92.33 3.553-2.457.692c-2.743.906-6.392 2.099-9.112 3.125-4.484 1.74-6.821 8.8-5.652 19.82 2.504-.978 5.032-1.836 7.585-2.504.166-12.021 4.007-19.63 9.635-21.133Zm.381-.095c-5.653 1.503-9.564 9.135-9.779 21.18a74 74 0 0 0-8.062 2.672c-1.216-10.972 1.073-18.008 5.534-19.773 2.838-1.026 6.607-2.386 9.469-3.292z"/><path fill="#FFCC4E" d="M113.247.143c-2.409.214-5.629.453-8.038.763l-4.269.692c-7.108 1.836-11.401 9.182-12.808 21.848a63 63 0 0 1 7.56-.907C98.556 8.825 105.544.524 113.248.143Z"/><path fill="#FF8F64" d="M113.247.143c-2.409.214-5.629.453-8.038.763l-4.269.692c-7.108 1.836-11.401 9.182-12.808 21.848a63 63 0 0 1 7.56-.907C98.556 8.825 105.544.524 113.248.143Zm.406 0c-10.805 1.264-15.6 12.88-17.698 22.396a62 62 0 0 0-8.038.954C89.11 10.78 94.118 2.838 100.558 1.67l4.651-.763c2.553-.239 5.916-.62 8.444-.763Z"/><path fill="#FFCC4E" d="M134.976 1.598c-3.792-.573-8.896-1.193-12.713-1.48-8.539-.38-17.054 8.039-21.204 22.421 2.457.12 4.89.382 7.275.835C118.232.453 131.231.906 134.976 1.598"/><path fill="#FF8F64" d="M134.976 1.598C131.184 1.026 126.08.406 122.263.12c-8.539-.381-17.054 8.038-21.204 22.42 2.457.12 4.89.383 7.275.836C118.232.453 131.231.906 134.976 1.598m.406.072c-9.66-1.908-20.632 6.487-26.81 21.752-2.528-.5-5.128-.787-7.751-.906C104.899 8.157 113.343-.238 121.834.096c8.849.667 9.016.691 13.548 1.574"/><path fill="#FFCC4E" d="m156.562 8.849-2.958-1.408c-2.814-1.12-6.583-2.623-9.469-3.577-10.256-3.196-23.04 5.009-30.721 20.75a43 43 0 0 1 5.152 1.956c.525.239 1.05.477 1.574.74 10.018-16.22 25.617-23.852 36.422-18.461"/><path fill="#FF8F64" d="m156.562 8.849-2.958-1.408c-2.814-1.12-6.583-2.623-9.469-3.577-10.256-3.196-23.04 5.009-30.721 20.75a43 43 0 0 1 5.152 1.956c.525.239 1.05.477 1.574.74 10.018-16.22 25.617-23.852 36.422-18.461m.381.19c-10.828-5.461-26.522 2.147-36.588 18.39l-1.789-.858a44 44 0 0 0-5.39-2.004C120.761 8.825 133.474.62 143.706 3.744c2.981 1.05 6.965 2.481 9.874 3.697z"/><path fill="#FFCC4E" d="m175.357 21.8-4.46-3.84c-1.789-1.312-4.127-3.1-5.963-4.317-10.9-7.156-28.622-.167-40.333 16.219 1.073.716 2.123 1.455 3.124 2.266a38 38 0 0 1 2.338 2.003c13.714-15.79 33.63-21.68 44.364-13.142.334.262.644.525.93.811"/><path fill="#FF8F64" d="m175.357 21.8-4.46-3.84c-1.789-1.312-4.127-3.1-5.963-4.317-10.9-7.155-28.622-.167-40.333 16.22 1.073.715 2.123 1.454 3.124 2.265a38 38 0 0 1 2.338 2.004c13.714-15.79 33.63-21.681 44.364-13.142.334.262.644.524.93.81m.31.287a16 16 0 0 0-.978-.835c-10.757-8.563-30.697-2.695-44.459 13.047a54 54 0 0 0-2.505-2.17 42 42 0 0 0-3.315-2.386c11.64-16.386 29.29-23.398 40.166-16.338 1.908 1.36 4.484 3.1 6.321 4.555z"/><path fill="#FFCC4E" d="M189.382 38.878c-1.885-2.815-4.484-6.512-6.56-9.183l-.954-1.145c-.667-.763-1.407-1.503-2.242-2.146-10.757-8.563-31.436-3.483-46.129 11.305a44 44 0 0 1 4.031 5.558c19.606-15.504 42.862-17.46 51.854-4.39Z"/><path fill="#FF8F64" d="M189.382 38.878c-1.885-2.815-4.484-6.512-6.56-9.183l-.954-1.145c-.667-.763-1.407-1.503-2.242-2.147-10.757-8.563-31.436-3.482-46.129 11.306a44 44 0 0 1 4.031 5.557c19.606-15.503 42.862-17.459 51.854-4.388m.214.357c-.93-1.526-2.146-2.91-3.673-4.126-10.757-8.563-32.39-4.818-48.275 8.324a42 42 0 0 0-4.294-5.915c14.645-14.836 35.324-19.94 46.058-11.377a15 15 0 0 1 2.17 2.099l1.24 1.455c2.123 2.79 4.842 6.607 6.774 9.54"/><path fill="#FFCC4E" d="m198.207 58.484-.143-.477c-1.217-3.386-2.934-7.847-4.365-11.138-.954-2.004-2.385-3.816-4.341-5.367-10.757-8.563-32.915-5.796-49.445 6.178a47 47 0 0 1 2.553 6.607c17.244-10.114 40.023-11.354 50.78-2.791 2.528 2.003 4.174 4.389 4.961 6.988"/><path fill="#FF8F64" d="m198.207 58.484-.143-.477c-1.217-3.387-2.934-7.847-4.365-11.139-.954-2.003-2.385-3.816-4.341-5.366-10.757-8.563-32.915-5.796-49.445 6.177a47 47 0 0 1 2.553 6.607c17.244-10.113 40.023-11.353 50.78-2.79 2.528 2.003 4.174 4.388 4.961 6.988m.119.381c-.787-2.6-2.457-5.008-4.985-7.036-10.757-8.562-33.535-7.37-50.804 2.648a50 50 0 0 0-2.719-7.036c16.481-12.022 38.64-14.836 49.397-6.273 1.932 1.526 3.363 3.339 4.317 5.319 1.479 3.41 3.315 7.99 4.532 11.496l.262.883Z"/><path fill="#FFCC4E" d="m202.166 79.187-.644-5.796-1.097-6.344c-.62-2.886-2.314-5.581-5.224-7.895-10.757-8.563-33.821-8.491-51.424.167a57 57 0 0 1 1.05 7.394c17.912-6.56 41.215-4.913 51.972 3.65 3.364 2.67 5.105 5.7 5.367 8.824"/><path fill="#FF8F64" d="m202.166 79.188-.644-5.796-1.097-6.345c-.62-2.886-2.314-5.581-5.224-7.895-10.757-8.562-33.821-8.49-51.424.167a57 57 0 0 1 1.05 7.394c17.912-6.559 41.215-4.913 51.972 3.65 3.364 2.67 5.105 5.7 5.367 8.825m.024.381c-.239-3.124-1.98-6.177-5.367-8.849-10.757-8.562-34.06-10.256-51.972-3.768a56.5 56.5 0 0 0-1.121-7.871c17.602-8.706 40.667-8.85 51.4-.287 2.886 2.29 4.579 4.986 5.2 7.848.357 2.027.906 4.699 1.168 6.726z"/><path fill="#FFCC4E" d="M201.689 100.225c.286-3.363.644-7.824.763-11.187v-1.001c-1.073-14.24-31.15-22.493-57.458-15.766a75 75 0 0 1-.501 7.918c17.817-2.719 41.072 2.028 51.806 10.567 4.031 3.196 5.748 6.463 5.39 9.469"/><path fill="#FF8F64" d="M201.689 100.225c.286-3.363.644-7.824.763-11.187v-1.002c-1.073-14.239-31.15-22.492-57.458-15.766a75 75 0 0 1-.501 7.92c17.817-2.72 41.072 2.027 51.806 10.566 4.031 3.196 5.748 6.463 5.39 9.469m-.048.405c.358-2.981-1.359-6.273-5.366-9.469-10.757-8.563-33.989-13.357-51.782-10.71a73 73 0 0 0 .549-8.443c26.475-6.774 56.552 1.407 57.434 15.6l-.024 1.406c-.167 3.507-.453 8.134-.811 11.616"/><path fill="#FFCC4E" d="m197.205 121.047.262-.883c.907-3.339 2.075-7.799 2.815-11.186 1.073-11.664-29.672-24.114-56.695-22.945a84 84 0 0 1-2.099 8.228c29.003 2.672 57.983 18.247 55.717 26.786"/><path fill="#FF8F64" d="m197.205 121.047.262-.882c.907-3.34 2.075-7.8 2.815-11.187 1.073-11.663-29.672-24.114-56.695-22.945a84 84 0 0 1-2.099 8.229c29.003 2.671 57.983 18.246 55.717 26.785m-.119.382c.715-2.314-1.002-5.415-5.486-8.968-10.757-8.563-33.273-16.601-50.184-17.96a80 80 0 0 0 2.242-8.754c17.579-1.145 40.596 4.89 51.353 13.452 4.197 3.363 5.891 6.607 5.366 9.398-.811 3.482-1.908 8.133-2.886 11.568z"/><path fill="#FFCC4E" d="m188.857 141.32 2.886-5.963 2.433-5.748c.739-1.932-1.05-4.866-5.653-8.515-10.757-8.563-32.796-17.936-49.158-20.894a94 94 0 0 1-3.745 8.253c15.289 5.295 36.469 16.577 47.226 25.139 4.747 3.793 6.679 6.417 6.011 7.728"/><path fill="#FF8F64" d="m188.857 141.32 2.886-5.962 2.433-5.749c.739-1.932-1.05-4.865-5.653-8.515-10.757-8.562-32.796-17.936-49.158-20.894a94 94 0 0 1-3.745 8.253c15.289 5.295 36.469 16.577 47.226 25.14 4.747 3.792 6.679 6.416 6.011 7.727m-.191.358c1.336-5.366-28.98-24.161-53.189-32.963a90 90 0 0 0 3.983-8.8c28.384 5.437 56.91 22.109 54.859 29.289l-2.576 6.13z"/><path fill="#FFCC4E" d="M176.979 160.33c2.242-3.196 5.176-7.465 7.251-10.757.501-.811-1.574-3.196-6.416-7.036-10.757-8.563-31.174-21.204-45.533-28.169a88 88 0 0 1-5.224 7.728c12.88 9.183 32.081 23.589 42.838 32.152 4.913 3.888 7.227 5.891 7.084 6.082"/><path fill="#FF8F64" d="M176.979 160.33c2.242-3.196 5.176-7.466 7.251-10.757.501-.811-1.574-3.196-6.416-7.036-10.757-8.563-31.174-21.204-45.533-28.169a88 88 0 0 1-5.224 7.728c12.88 9.183 32.081 23.589 42.838 32.152 4.913 3.888 7.227 5.891 7.084 6.082m-.239.334c.12-.167-2.194-2.171-7.06-6.059-10.757-8.562-29.934-23.04-42.742-32.271a99 99 0 0 0 5.558-8.229c14.406 6.894 34.847 19.487 45.604 28.026 4.794 3.84 6.869 6.225 6.368 7.084-2.266 3.482-5.319 8.086-7.728 11.449"/><path fill="#FFCC4E" d="m162.62 176.645 3.005-3.006c1.694-1.836 3.984-4.245 5.606-6.153-.191.214-2.696-1.575-7.561-5.438-10.757-8.563-29.004-24.162-40.715-34.8a90 90 0 0 1-6.201 6.559c9.946 12.498 26.785 29.624 37.518 38.187 4.842 3.864 7.633 5.319 8.348 4.651"/><path fill="#FF8F64" d="m162.62 176.645 3.005-3.005c1.694-1.837 3.984-4.246 5.606-6.154-.191.215-2.696-1.574-7.561-5.438-10.757-8.563-29.004-24.162-40.715-34.8a90 90 0 0 1-6.201 6.56c9.946 12.498 26.785 29.623 37.518 38.186 4.842 3.864 7.633 5.319 8.348 4.651m-.286.286c-.739.692-3.53-.787-8.348-4.603-10.757-8.563-27.525-25.736-37.423-38.282a97 97 0 0 0 6.583-6.988c11.759 10.566 30.053 26.141 40.81 34.704 4.866 3.887 7.37 5.652 7.537 5.462-1.765 1.932-4.055 4.579-5.868 6.463z"/><path fill="#FFCC4E" d="M146.186 190.121c2.314-1.694 5.415-3.936 7.681-5.724l2.122-1.742c-1.121.931-4.102-.357-8.872-4.15-10.757-8.563-26.476-26.666-35.086-40.404a90 90 0 0 1-6.917 5.271c6.631 15.241 20.775 34.561 31.532 43.123 4.603 3.674 7.847 4.771 9.54 3.626"/><path fill="#FF8F64" d="M146.186 190.121c2.314-1.694 5.415-3.936 7.681-5.725l2.122-1.741c-1.121.931-4.102-.357-8.872-4.15-10.757-8.563-26.476-26.666-35.086-40.404a90 90 0 0 1-6.917 5.271c6.631 15.241 20.775 34.561 31.532 43.123 4.603 3.674 7.847 4.771 9.54 3.626m-.334.238c-1.693 1.145-4.961.048-9.564-3.601-10.757-8.563-24.83-27.93-31.413-43.195a90 90 0 0 0 7.347-5.629c8.658 13.667 24.448 31.746 35.205 40.309 4.77 3.792 7.751 5.08 8.849 4.174l-2.433 2.003c-2.362 1.789-5.51 4.222-7.991 5.939"/><path fill="#FFCC4E" d="M127.988 200.544c3.267-1.645 7.608-3.864 10.781-5.676-2.076 1.216-5.462.214-9.947-3.363-10.757-8.563-23.684-28.67-28.86-44.817-2.433 1.431-4.89 2.742-7.37 3.887 3.077 17.269 14.311 38.258 25.068 46.821 4.222 3.387 7.776 4.341 10.328 3.148"/><path fill="#FF8F64" d="M127.988 200.544c3.267-1.646 7.608-3.864 10.781-5.677-2.076 1.216-5.462.215-9.947-3.363-10.757-8.563-23.684-28.67-28.86-44.817-2.433 1.431-4.89 2.743-7.37 3.887 3.077 17.269 14.311 38.258 25.068 46.821 4.222 3.387 7.776 4.341 10.328 3.149m-.358.167c-2.552 1.168-6.106.238-10.352-3.149-10.757-8.563-21.943-29.576-24.949-46.868a85 85 0 0 0 7.848-4.127c5.247 16.1 18.246 36.183 28.979 44.746 4.484 3.578 7.895 4.579 9.947 3.363-3.411 1.884-7.967 4.365-11.473 6.035"/><path fill="#FFCC4E" d="m108.215 207.581 4.412-1.217c2.171-.715 5.081-1.622 7.227-2.433-2.814 1.026-6.392.096-10.423-3.124-10.757-8.563-20.75-30.077-22.277-47.99-2.528.931-5.057 1.742-7.585 2.362-.62 18.58 7.632 40.643 18.366 49.206 3.697 2.981 7.227 3.935 10.28 3.196"/><path fill="#FF8F64" d="m108.215 207.581 4.412-1.217c2.171-.715 5.081-1.621 7.227-2.432-2.814 1.025-6.392.095-10.423-3.125-10.757-8.563-20.75-30.077-22.277-47.989-2.528.93-5.057 1.741-7.585 2.361-.62 18.58 7.632 40.643 18.366 49.206 3.697 2.981 7.227 3.935 10.28 3.196m-.382.095c-3.053.74-6.559-.238-10.256-3.172-10.757-8.563-18.938-30.649-18.247-49.23a70 70 0 0 0 8.086-2.528c1.598 17.865 11.663 39.379 22.397 47.942 4.055 3.22 7.632 4.15 10.423 3.124-2.29.787-5.295 1.861-7.609 2.552z"/><path fill="#FFCC4E" d="M87.178 210.538c3.029-.214 7.06-.5 10.089-.858l2.29-.334c-3.101.501-6.488-.525-9.899-3.22-10.757-8.563-17.722-30.888-15.551-49.778a63 63 0 0 1-7.537.739c-5.748 28.813 6.726 53.905 20.608 53.451"/><path fill="#FF8F64" d="M87.178 210.538c3.029-.214 7.06-.501 10.089-.858l2.29-.334c-3.101.501-6.488-.525-9.899-3.22-10.757-8.563-17.722-30.888-15.551-49.778a63 63 0 0 1-7.537.739c-5.748 28.813 6.726 53.904 20.608 53.451m-.406.024c-17.125-.811-25.545-30.077-20.465-53.475a58 58 0 0 0 8.038-.787c-2.099 18.89 4.938 41.215 15.67 49.754 3.436 2.719 6.823 3.721 9.923 3.22l-2.695.406c-3.125.334-7.322.882-10.47.882Z"/><path fill="#FFCC4E" d="M65.425 208.606c3.792.668 8.873 1.408 12.689 1.789-2.72-.191-5.438-1.264-7.99-3.291-10.757-8.563-14.74-31.031-8.92-50.113a49 49 0 0 1-7.252-1.025c-10.28 26.451-2.433 49.587 11.473 52.64"/><path fill="#FF8F64" d="M65.425 208.606c3.792.668 8.873 1.407 12.689 1.789-2.72-.191-5.438-1.264-7.99-3.292-10.757-8.562-14.74-31.03-8.92-50.112a49 49 0 0 1-7.252-1.025c-10.28 26.451-2.433 49.587 11.473 52.64m-.406-.095c-15.503-4.508-20.774-29.099-11.281-52.593 2.528.549 5.104.906 7.704 1.073-5.772 19.082-1.718 41.574 9.04 50.112 2.575 2.052 5.294 3.125 8.037 3.292-7.68-.763-9.993-.978-13.5-1.884"/><path fill="#FFCC4E" d="m43.935 200.759 4.913 2.409c2.218.882 5.152 2.122 7.394 2.909-1.67-.572-3.244-1.431-4.746-2.623-10.758-8.563-11.902-30.483-2.6-48.872a42 42 0 0 1-4.031-1.574 45 45 0 0 1-2.624-1.288c-11.21 17.578-11.568 38.854-.835 47.393a17.6 17.6 0 0 0 2.529 1.646"/><path fill="#FF8F64" d="m43.935 200.759 4.913 2.409c2.218.882 5.152 2.123 7.394 2.91-1.67-.573-3.244-1.431-4.746-2.624-10.758-8.563-11.902-30.482-2.6-48.872a42 42 0 0 1-4.031-1.574 45 45 0 0 1-2.624-1.288c-11.21 17.578-11.568 38.854-.835 47.393.835.644 1.67 1.193 2.529 1.646m-.382-.215a15.6 15.6 0 0 1-2.409-1.598c-10.757-8.563-10.328-29.791.93-47.345.907.5 1.86.954 2.839 1.383a46 46 0 0 0 4.245 1.646c-9.254 18.413-8.038 40.357 2.72 48.919a16 16 0 0 0 4.817 2.648c-2.361-.883-5.51-2.028-7.8-3.029z"/><path fill="#FFCC4E" d="M25.569 187.354c1.789 1.598 4.15 3.792 6.01 5.295l4.15 3.077a10 10 0 0 1-.858-.644c-10.757-8.563-9.374-29.218 3.053-46.034-.74-.524-1.479-1.049-2.17-1.622a44 44 0 0 1-3.149-2.79c-13.404 14.979-16.338 33.678-7.036 42.718"/><path fill="#FF8F64" d="M25.569 187.354c1.789 1.599 4.15 3.793 6.01 5.296l4.15 3.076a10 10 0 0 1-.858-.644c-10.757-8.562-9.374-29.218 3.053-46.033-.74-.525-1.479-1.05-2.17-1.622a44 44 0 0 1-3.149-2.791c-13.404 14.979-16.338 33.679-7.036 42.718m-.31-.31c-9.207-9.063-6.225-27.667 7.18-42.551 1.049 1.026 2.146 2.028 3.315 2.934.763.596 1.55 1.192 2.36 1.741-12.378 16.863-13.714 37.542-2.957 46.105.31.239.62.477.93.692l-4.508-3.339c-1.931-1.622-4.507-3.817-6.32-5.582"/><path fill="#FFCC4E" d="M12.045 169.943a195 195 0 0 0 7.227 10.494c-7.56-9.349-3.578-26.141 10.018-39.426a42.6 42.6 0 0 1-3.888-5.677c-13.643 11.019-18.771 25.33-13.357 34.609"/><path fill="#FF8F64" d="M12.045 169.943a195 195 0 0 0 7.227 10.495c-7.56-9.35-3.578-26.142 10.018-39.427a42.6 42.6 0 0 1-3.888-5.677c-13.643 11.02-18.771 25.331-13.357 34.609m-.215-.358c-5.342-9.278-.167-23.494 13.429-34.441a43.7 43.7 0 0 0 4.15 6.034c-13.595 13.333-17.555 30.244-9.898 39.57-5.08-6.726-5.272-6.989-7.68-11.163Z"/><path fill="#FFCC4E" d="m3.673 150.217.716 2.409c1.001 2.815 2.361 6.536 3.506 9.279-4.031-8.992 1.693-21.586 15.17-31.031a48 48 0 0 1-2.41-6.679c-19.367 11.592-17.888 22.85-16.982 26.022"/><path fill="#FF8F64" d="m3.673 150.218.716 2.409c1.001 2.814 2.361 6.535 3.506 9.278-4.031-8.992 1.693-21.586 15.17-31.031a48 48 0 0 1-2.41-6.678C1.288 135.787 2.767 147.045 3.674 150.218Zm-.095-.382c-2.79-13.142 10.995-22.468 17.03-25.879a50 50 0 0 0 2.576 7.108c-13.5 9.517-19.177 22.182-15.098 31.174-1.169-2.862-2.696-6.726-3.673-9.66z"/><path fill="#FFCC4E" d="M.167 129.442c.215 2.338.453 5.462.763 7.8l.716 4.341c-1.264-10.853 8.992-18.247 17.817-22.516-.453-2.409-.74-4.914-.907-7.442C2.886 117.492-.095 124.553.168 129.442Z"/><path fill="#FF8F64" d="M.167 129.442c.215 2.337.453 5.462.763 7.799l.716 4.341c-1.264-10.852 8.992-18.246 17.817-22.516-.453-2.409-.74-4.913-.906-7.441-15.67 5.867-18.652 12.927-18.39 17.817m-.024-.406c-.405-6.654 6.202-13.5 18.414-17.674.143 2.719.477 5.367.954 7.919C6.702 125.339.239 134.26 1.717 141.964l-.787-4.747c-.238-2.432-.62-5.724-.787-8.181"/><path fill="#FFCC4E" d="M1.026 108.382c-.382 3.649-.835 8.539-1.002 12.212.906-8.324 10.518-12.498 18.461-14.549.072-2.624.286-5.272.668-7.967-11.067 1.455-17.46 5.438-18.127 10.304"/><path fill="#FF8F64" d="M1.026 108.382c-.382 3.649-.835 8.539-1.002 12.212.906-8.325 10.518-12.499 18.461-14.55.072-2.623.286-5.271.668-7.966-11.067 1.455-17.46 5.438-18.127 10.304m.071-.382c.668-4.818 7.06-8.777 18.08-10.185a69 69 0 0 0-.692 8.492C6.726 109.383.167 115.036.024 120.999c.215-3.911.572-9.135 1.073-12.999"/><path fill="#FFCC4E" d="m5.915 87.607-.906 2.838c-.74 2.767-1.765 6.416-2.41 9.207 1.48-4.508 7.395-7.013 17.603-7.442a83 83 0 0 1 2.266-8.229c-3.673-.286-14.788-1.168-16.553 3.626"/><path fill="#FF8F64" d="m5.915 87.607-.906 2.838c-.74 2.767-1.765 6.416-2.41 9.207 1.48-4.508 7.395-7.012 17.603-7.442a83 83 0 0 1 2.266-8.228c-3.673-.287-14.788-1.17-16.553 3.625m.12-.382c1-2.075 3.815-4.675 16.505-3.505a83 83 0 0 0-2.41 8.754c-10.565.453-16.743 3.41-17.626 7.561.716-2.886 1.646-6.75 2.481-9.589l1.05-3.22Z"/><path fill="#FFCC4E" d="M14.597 67.405c-1.168 2.361-2.79 5.462-3.864 7.847l-1.646 3.816c.978-2.409 6.393-2.957 15.6-1.05a89 89 0 0 1 3.911-8.252c-8.396-3.148-13.214-3.84-14-2.361Z"/><path fill="#FF8F64" d="M14.597 67.404c-1.168 2.362-2.79 5.462-3.864 7.847l-1.646 3.817c.978-2.41 6.393-2.958 15.6-1.05a89 89 0 0 1 3.911-8.253c-8.396-3.148-13.214-3.84-14-2.36Zm.215-.358c.763-1.455 5.557-.739 13.93 2.457a95 95 0 0 0-4.175 8.778c-3.792-.692-13.858-2.553-15.646 1.168l1.812-4.198c1.217-2.456 2.767-5.796 4.079-8.205"/><path fill="#FFCC4E" d="M129.562 34.751a36 36 0 0 0-2.314-1.98c-12.617 16.267-14.311 36.136-3.697 44.58l.215.19c-9.541-8.849-7.084-27.572 5.796-42.79"/><path fill="#FF8F64" d="M129.562 34.751a36 36 0 0 0-2.314-1.98c-12.617 16.267-14.311 36.136-3.697 44.58l.215.19c-9.541-8.849-7.084-27.572 5.796-42.79m.477-.238C116.873 49.73 114.225 68.62 123.79 77.54l-.239-.215c-10.685-8.515-8.896-28.645 4.007-44.96.859.692 1.67 1.407 2.481 2.147Z"/><path fill="#FFCC4E" d="M136.932 43.767a46 46 0 0 0-3.983-5.51c-13.119 13.549-16.673 30.435-8.825 39.618l.047.072c.167.215.358.5.501.715-5.653-9.183-.93-23.589 12.26-34.895"/><path fill="#FF8F64" d="M136.932 43.768a45.6 45.6 0 0 0-3.983-5.51c-13.119 13.548-16.673 30.435-8.825 39.618l.047.071c.167.215.358.501.501.716-5.653-9.183-.93-23.59 12.26-34.895m.501-.12C123.981 54.93 119.067 69.433 124.72 78.71c-.143-.238-.358-.524-.525-.763l-.071-.095c-7.991-9.23-4.341-26.428 9.039-40.119a44 44 0 0 1 4.27 5.916Z"/><path fill="#FFCC4E" d="M141.822 54.644a50 50 0 0 0-2.529-6.536c-13.07 9.732-18.437 22.445-14.168 31.39.191.452.43 1.049.573 1.502l.024.071c-2.576-8.276 3.363-18.747 16.1-26.427"/><path fill="#FF8F64" d="M141.822 54.644a50 50 0 0 0-2.529-6.535c-13.07 9.731-18.437 22.444-14.168 31.389.191.453.43 1.049.573 1.502l.024.072c-2.576-8.277 3.363-18.748 16.1-26.428m.477-.024c-13 7.633-19.106 18.175-16.553 26.523l-.048-.143a31 31 0 0 0-.596-1.55c-4.365-9.04 1.121-21.991 14.478-31.818a50.6 50.6 0 0 1 2.719 6.988"/><path fill="#FFCC4E" d="M144.159 66.975a60 60 0 0 0-1.026-7.298c-12.426 6.297-18.628 15.289-16.982 22.969l.215 1.264.143 1.383c-.573-6.726 5.772-13.81 17.65-18.318"/><path fill="#FF8F64" d="M144.159 66.975a60 60 0 0 0-1.026-7.299c-12.426 6.297-18.628 15.29-16.982 22.97l.215 1.263.143 1.384c-.573-6.726 5.772-13.81 17.65-18.318m.429.071c-12.116 4.46-18.628 11.545-18.103 18.318l-.167-1.478c-.072-.406-.143-.93-.239-1.336-1.693-7.8 4.652-16.959 17.364-23.35a53 53 0 0 1 1.145 7.846"/><path fill="#FFCC4E" d="M143.849 80.284a74 74 0 0 0 .501-7.848c-11.425 3.316-17.746 9.112-17.793 15.075v.262a82 82 0 0 1-.239 3.387c.572-4.913 6.774-9.087 17.531-10.876"/><path fill="#FF8F64" d="M143.849 80.284a73 73 0 0 0 .501-7.847c-11.425 3.316-17.746 9.112-17.793 15.075v.262a82 82 0 0 1-.239 3.387c.572-4.914 6.774-9.088 17.531-10.877m.382.191c-10.996 1.694-17.317 5.868-17.913 10.829a86 86 0 0 0 .262-3.506v-.382c0-6.082 6.512-11.997 18.199-15.36a73 73 0 0 1-.548 8.42Z"/><path fill="#FFCC4E" d="M140.82 94.19a74 74 0 0 0 2.075-8.133c-7.036.668-15.337 2.17-17.054 8.038-.286 1.216-.668 2.838-1.026 4.03l-.095.335c1.002-3.173 6.607-4.89 16.1-4.27"/><path fill="#FF8F64" d="M140.82 94.19a74 74 0 0 0 2.075-8.134c-7.036.668-15.337 2.17-17.054 8.038-.286 1.217-.668 2.839-1.026 4.031l-.095.334c1.002-3.172 6.607-4.89 16.1-4.27Zm.334.31c-9.732-.74-15.456.93-16.458 4.126l.143-.477c.334-1.24.787-2.91 1.05-4.174.834-4.293 6.964-7.465 17.507-8.181a96 96 0 0 1-2.242 8.706"/><path fill="#FFCC4E" d="M135.024 108.262a92 92 0 0 0 3.721-8.181c-8.969-1.55-14.24-.764-15.218 1.741l-.978 2.313-1.216 2.505c.811-1.574 5.534-1.145 13.691 1.622"/><path fill="#FF8F64" d="M135.024 108.262a92 92 0 0 0 3.721-8.181c-8.968-1.55-14.24-.763-15.218 1.741l-.978 2.314-1.216 2.504c.811-1.574 5.534-1.144 13.691 1.622m.238.382c-3.148-1.05-12.713-4.293-14.001-1.837l1.288-2.647 1.05-2.481c.62-1.097 2.29-4.007 15.647-1.789a98 98 0 0 1-3.984 8.754"/><path fill="#FFCC4E" d="M126.604 121.738a91 91 0 0 0 5.152-7.656c-7.561-3.65-11.806-4.89-12.403-3.912-.93 1.431-2.17 3.315-3.172 4.699.167-.215 3.721 2.099 10.423 6.869"/><path fill="#FF8F64" d="M126.604 121.738a91 91 0 0 0 5.152-7.656c-7.561-3.649-11.806-4.89-12.403-3.912-.93 1.431-2.17 3.316-3.172 4.699.167-.215 3.721 2.099 10.423 6.869m.12.454c-6.894-4.962-10.495-7.371-10.662-7.156a142 142 0 0 0 3.387-5.009c.596-1.025 5.009.239 12.808 3.96a90 90 0 0 1-5.533 8.205"/><path fill="#FFCC4E" d="M116.396 133.354a99 99 0 0 0 6.13-6.487c-6.106-5.558-9.088-8.563-8.849-8.802-.74.811-1.694 1.909-2.457 2.696l-1.312 1.288c-.859.787 1.288 4.698 6.488 11.305"/><path fill="#FF8F64" d="M116.396 133.354a99 99 0 0 0 6.13-6.487c-6.106-5.558-9.088-8.563-8.849-8.802-.74.811-1.694 1.909-2.457 2.696l-1.312 1.288c-.859.787 1.288 4.698 6.488 11.305m.024.477c-5.343-6.821-7.537-10.852-6.631-11.687l1.431-1.407c.763-.859 1.837-1.956 2.576-2.839-.215.239 2.886 3.292 9.207 8.969a92 92 0 0 1-6.583 6.964"/><path fill="#FFCC4E" d="M104.875 142.799a94 94 0 0 0 6.846-5.223c-4.532-7.346-6.011-11.831-4.651-12.975l-.907.739c-.93.716-2.17 1.67-3.124 2.337-2.194 1.503-1.741 6.774 1.836 15.122"/><path fill="#FF8F64" d="M104.875 142.799a94 94 0 0 0 6.846-5.223c-4.532-7.346-6.011-11.83-4.651-12.975l-.907.739c-.93.716-2.17 1.67-3.124 2.338-2.194 1.502-1.741 6.773 1.836 15.121m-.071.525c-3.673-8.586-4.15-14.025-1.884-15.551.978-.716 2.313-1.67 3.267-2.433l1.026-.859c-1.36 1.145.191 5.725 4.937 13.238a94 94 0 0 1-7.346 5.605"/><path fill="#FFCC4E" d="M92.449 149.931a89 89 0 0 0 7.298-3.84c-2.814-9.064-2.48-14.86.358-16.529a125 125 0 0 1-3.96 2.098c-3.816 1.742-5.366 8.205-3.696 18.271"/><path fill="#FF8F64" d="M92.449 149.931a89 89 0 0 0 7.298-3.84c-2.814-9.064-2.48-14.86.358-16.53a125 125 0 0 1-3.96 2.099c-3.816 1.741-5.366 8.205-3.696 18.271m-.167.524c-1.741-10.304-.167-16.958 3.72-18.723a119 119 0 0 0 4.222-2.218c-2.838 1.669-3.1 7.608-.143 16.839a87 87 0 0 1-7.8 4.102Z"/><path fill="#FFCC4E" d="M79.593 154.511a70 70 0 0 0 7.513-2.338c-.811-10.781 1.741-17.698 6.32-19.367a87 87 0 0 1-2.29.763l-1.24.334c-5.7 1.407-9.755 8.825-10.303 20.608"/><path fill="#FF8F64" d="M79.593 154.51a70 70 0 0 0 7.513-2.337c-.811-10.781 1.741-17.698 6.32-19.367a87 87 0 0 1-2.29.763l-1.24.334c-5.7 1.407-9.755 8.825-10.303 20.607m-.263.501c.501-12.069 4.651-19.677 10.471-21.084l1.336-.358c.716-.239 1.693-.549 2.409-.811-4.603 1.717-7.108 8.753-6.178 19.749a72 72 0 0 1-8.038 2.504"/><path fill="#FFCC4E" d="M66.737 156.347c2.457-.071 4.96-.334 7.465-.715 1.598-12.475 6.893-20.203 13.453-21.252l-.573.095c-.644.072-1.479.143-2.123.191-10.9 1.05-15.933 12.379-18.222 21.681"/><path fill="#FF8F64" d="M66.737 156.348c2.457-.072 4.96-.334 7.465-.716 1.598-12.474 6.893-20.202 13.453-21.252l-.573.096a66 66 0 0 1-2.123.191c-10.9 1.049-15.933 12.378-18.222 21.681m-.358.453c4.651-17.698 12.594-21.824 18.461-22.158.668-.048 1.55-.12 2.218-.191l.668-.096c-6.583 1.074-11.878 8.969-13.357 21.682a61 61 0 0 1-7.99.763"/><path fill="#FFCC4E" d="M54.262 155.25a51 51 0 0 0 7.156 1.002c4.508-14.096 13.261-22.23 21.848-21.633a22 22 0 0 1-1.789-.239c-15.694-2.385-24.782 15.384-27.215 20.87"/><path fill="#FF8F64" d="M54.262 155.25a51 51 0 0 0 7.156 1.002c4.508-14.096 13.261-22.23 21.848-21.633a22 22 0 0 1-1.789-.239c-15.694-2.385-24.782 15.384-27.215 20.87m-.405.406c10.518-22.802 23.78-22.063 27.596-21.276 1.193.215 1.193.215 1.908.262-8.634-.548-17.411 7.752-21.824 22.111a55 55 0 0 1-7.68-1.097"/><path fill="#FFCC4E" d="M42.718 151.052c.835.453 1.717.883 2.6 1.264a40 40 0 0 0 3.983 1.551c8.062-15.385 21.061-23.232 31.293-19.749-.19-.072-.453-.167-.643-.263l-.334-.167c-10.734-5.676-26.523 1.551-36.899 17.364"/><path fill="#FF8F64" d="M42.718 151.052c.835.453 1.717.883 2.6 1.264a41 41 0 0 0 3.983 1.551c8.062-15.385 21.061-23.232 31.293-19.75-.19-.071-.453-.166-.643-.262l-.334-.167c-10.734-5.677-26.523 1.551-36.899 17.364m-.477.31c10.447-16.123 26.523-23.47 37.328-17.65l.358.167c.214.072.477.191.691.262-10.303-3.458-23.35 4.58-31.34 20.25a46 46 0 0 1-4.222-1.645 52 52 0 0 1-2.815-1.384"/><path fill="#FFCC4E" d="M36.254 146.831a36 36 0 0 0 2.147 1.598c12.117-15.933 29.981-22.469 40.715-15.003l-.191-.143c-10.614-8.444-29.624-2.361-42.67 13.548Z"/><path fill="#FF8F64" d="M36.254 146.83a36 36 0 0 0 2.147 1.598c12.117-15.933 29.981-22.468 40.715-15.003l-.191-.143c-10.614-8.443-29.624-2.361-42.67 13.548Zm-.31.382c13.047-16.196 32.272-22.445 42.98-13.93l.216.167c-10.83-7.441-28.813-.715-40.858 15.504a55 55 0 0 1-2.338-1.741"/></g><defs><clipPath id="a"><path fill="#fff" d="M202.5 0H0v210.586h202.5z"/></clipPath></defs></svg>