<svg xmlns="http://www.w3.org/2000/svg" width="137.338" height="32" fill="none" overflow="visible"><path fill="#111127" d="M136.812 12.819v1.988h-6.449v-1.988Zm-4.837 10.909v-11.94q0-1.1.455-1.832.462-.731 1.236-1.093a4 4 0 0 1 1.719-.363q.667 0 1.186.107.518.106.767.192l-.512 1.988a5 5 0 0 0-.412-.1 2.5 2.5 0 0 0-.554-.056q-.717 0-1.015.348-.291.34-.291.98v11.769Zm-9.033.22q-1.037 0-1.868-.37a3.05 3.05 0 0 1-1.307-1.108q-.476-.731-.476-1.804 0-.923.341-1.526.34-.605.93-.966a4.7 4.7 0 0 1 1.329-.547 11 11 0 0 1 1.541-.277 58 58 0 0 0 1.555-.178q.597-.085.867-.256.276-.177.277-.546v-.043q0-.803-.476-1.243-.475-.44-1.371-.44-.945 0-1.499.412-.546.411-.738.973l-2.401-.341q.285-.995.938-1.662.653-.675 1.598-1.009a6.1 6.1 0 0 1 2.088-.34c.528 0 1.055.062 1.569.184.508.118.992.324 1.428.61q.647.42 1.037 1.144.398.725.398 1.811v7.301h-2.472v-1.498h-.085a3.1 3.1 0 0 1-1.719 1.484q-.632.235-1.484.235m.667-1.89q.774 0 1.343-.305.568-.312.873-.824c.207-.334.316-.721.313-1.115v-1.285q-.121.1-.412.184a6 6 0 0 1-.639.15q-.356.063-.704.113l-.603.085a4.6 4.6 0 0 0-1.03.256 1.7 1.7 0 0 0-.717.497q-.263.313-.263.81 0 .71.518 1.072.519.363 1.321.362m-10.832 1.883q-1.641 0-2.834-.682a4.6 4.6 0 0 1-1.825-1.946q-.64-1.265-.64-2.976 0-1.683.64-2.955.646-1.278 1.804-1.988 1.157-.718 2.72-.718 1.008 0 1.903.327c.597.211 1.14.55 1.591.994q.696.675 1.094 1.72.398 1.036.398 2.47v.79h-8.942v-1.734h6.477a2.76 2.76 0 0 0-.32-1.314 2.33 2.33 0 0 0-.873-.916q-.553-.334-1.293-.334-.788 0-1.385.384-.596.376-.93.994a2.9 2.9 0 0 0-.334 1.342v1.513q0 .953.348 1.634.348.675.973 1.037.625.354 1.463.355.561 0 1.016-.156c.292-.103.561-.265.788-.476.227-.214.4-.479.504-.774l2.401.27a3.74 3.74 0 0 1-.866 1.661q-.633.705-1.62 1.094-.987.384-2.258.384m-7.474-14.759v14.546h-2.571V9.182Zm-12.187 8.153v6.392h-2.571V12.818h2.457v1.854h.128a3.1 3.1 0 0 1 1.2-1.456q.832-.54 2.053-.54 1.129 0 1.967.483.846.483 1.307 1.4.469.915.462 2.223v6.945h-2.571v-6.548q0-1.094-.569-1.711-.56-.618-1.555-.618-.675 0-1.2.298a2.1 2.1 0 0 0-.817.845q-.291.555-.291 1.343Zm-9.597 6.606q-1.64 0-2.834-.682a4.6 4.6 0 0 1-1.825-1.946q-.64-1.264-.64-2.976 0-1.683.64-2.955.645-1.278 1.804-1.988 1.157-.718 2.72-.718 1.008 0 1.903.327c.597.211 1.14.55 1.591.994q.696.675 1.094 1.72.398 1.036.398 2.47v.79h-8.942v-1.734h6.477a2.76 2.76 0 0 0-.32-1.314 2.33 2.33 0 0 0-.873-.916q-.554-.334-1.293-.334-.788 0-1.385.384-.596.376-.93.994a2.9 2.9 0 0 0-.334 1.342v1.513q0 .953.348 1.634.349.675.973 1.037.626.354 1.463.355c.345.005.688-.048 1.016-.156.292-.103.561-.265.788-.476q.334-.313.505-.774l2.4.27a3.74 3.74 0 0 1-.866 1.661q-.633.705-1.62 1.094-.986.384-2.258.384m-11.856 0q-1.64 0-2.833-.682a4.6 4.6 0 0 1-1.826-1.946q-.639-1.264-.639-2.976 0-1.683.64-2.955.646-1.278 1.803-1.988 1.158-.718 2.72-.718 1.009 0 1.904.327c.597.211 1.14.55 1.59.994q.698.675 1.094 1.72.399 1.036.398 2.47v.79h-8.941v-1.734h6.477a2.76 2.76 0 0 0-.32-1.314 2.33 2.33 0 0 0-.873-.916q-.554-.334-1.293-.334-.788 0-1.385.384-.597.376-.93.994a2.9 2.9 0 0 0-.334 1.342v1.513q0 .953.348 1.634.348.675.973 1.037.624.354 1.463.355c.345.005.688-.048 1.016-.156q.454-.164.788-.476.333-.313.504-.774l2.4.27a3.74 3.74 0 0 1-.866 1.661q-.63.705-1.62 1.094-.986.384-2.258.384m-12.31-.213v-10.91h2.493v1.819h.114q.298-.945 1.023-1.456a2.82 2.82 0 0 1 1.669-.519q.238.002.475.021.27.015.448.05v2.365a3 3 0 0 0-.519-.1 5 5 0 0 0-.674-.049q-.703 0-1.264.306a2.24 2.24 0 0 0-.874.83q-.32.533-.32 1.23v6.413zm-5.239-9.901a3.8 3.8 0 0 0-.49-1.03c-.2-.303-.45-.569-.74-.788a3 3 0 0 0-.98-.49 4.1 4.1 0 0 0-1.207-.17q-1.17 0-2.088.589-.916.589-1.441 1.733-.519 1.135-.519 2.77 0 1.648.519 2.79.518 1.145 1.441 1.74.923.59 2.145.59 1.108 0 1.918-.426a3 3 0 0 0 1.257-1.207q.44-.788.44-1.847l.597.093h-3.949v-2.06h5.902v1.747q0 1.868-.795 3.232a5.43 5.43 0 0 1-2.188 2.102q-1.392.732-3.196.732-2.01 0-3.53-.902-1.513-.91-2.365-2.579Q44 18.77 44 16.469q0-1.761.497-3.146.504-1.386 1.406-2.351a6 6 0 0 1 2.117-1.477 6.8 6.8 0 0 1 2.642-.512q1.207 0 2.251.355c.672.22 1.3.556 1.854.995a5.44 5.44 0 0 1 2.032 3.494Z"/><path fill="#A5B37C" d="M18 17a5 5 0 1 1 10.001.001A5 5 0 0 1 18 17"/><path fill="#655FCF" d="M0 17.5a5.5 5.5 0 1 1 11 0V32H0ZM0 1a1 1 0 0 1 1-1h25a6 6 0 0 1 6 6v3a1 1 0 0 1-1 1H0Z"/></svg>