<svg xmlns="http://www.w3.org/2000/svg" width="150.637" height="32" fill="none" overflow="visible"><path fill="#111127" d="M150.637 7.5v14.546h-2.571V7.5Zm-10.916 14.766q-1.037 0-1.868-.37a3.06 3.06 0 0 1-1.307-1.107q-.476-.733-.476-1.804 0-.924.341-1.527a2.63 2.63 0 0 1 .931-.966c.412-.25.86-.434 1.328-.547q.746-.192 1.541-.277a63 63 0 0 0 1.555-.178q.597-.085.867-.255.276-.178.277-.547v-.043q0-.802-.476-1.243-.476-.44-1.371-.44-.945 0-1.498.412-.547.412-.739.973l-2.401-.34q.285-.996.938-1.663a4.1 4.1 0 0 1 1.598-1.008 6.1 6.1 0 0 1 2.088-.341q.789 0 1.57.184.78.185 1.427.611.647.419 1.037 1.144.398.724.398 1.81v7.302h-2.472v-1.499h-.085a3.1 3.1 0 0 1-.661.853q-.419.39-1.058.632-.632.234-1.484.234m.667-1.89q.775 0 1.343-.305c.36-.19.662-.475.873-.823q.313-.512.313-1.115v-1.286q-.121.1-.412.185-.315.093-.639.149-.355.063-.703.114l-.604.085q-.53.067-1.03.255a1.7 1.7 0 0 0-.717.498q-.263.312-.263.81 0 .71.518 1.072.519.362 1.321.362Zm-13.422-4.722v6.392h-2.571v-10.91h2.457v1.854h.128a3.1 3.1 0 0 1 1.2-1.456q.83-.54 2.053-.54 1.128 0 1.967.484.845.483 1.307 1.399.468.916.461 2.223v6.946h-2.571v-6.548q0-1.095-.568-1.712-.56-.618-1.555-.618-.675 0-1.2.298a2.07 2.07 0 0 0-.817.846q-.291.553-.291 1.342m-9.981 6.605q-1.598 0-2.77-.703a4.8 4.8 0 0 1-1.818-1.967q-.639-1.264-.639-2.955c0-1.691.213-2.114.639-2.962a4.76 4.76 0 0 1 1.818-1.974q1.172-.703 2.77-.703c1.598 0 1.989.234 2.77.703a4.7 4.7 0 0 1 1.811 1.974q.646 1.272.646 2.962t-.646 2.954a4.73 4.73 0 0 1-1.811 1.968q-1.172.703-2.77.703m.014-2.06q.867 0 1.449-.476.582-.482.867-1.292.291-.81.291-1.804 0-1.001-.291-1.811-.285-.817-.867-1.3t-1.449-.483q-.888 0-1.477.483-.582.483-.874 1.3a5.5 5.5 0 0 0-.284 1.81q0 .995.284 1.805.292.81.874 1.292.59.477 1.477.476m-12.53 6.165q-1.384 0-2.379-.376-.995-.37-1.598-.995a3.4 3.4 0 0 1-.838-1.385l2.315-.56q.156.319.455.631.298.32.802.526.512.213 1.286.213 1.094 0 1.811-.533.717-.525.717-1.733v-2.066h-.128a3.6 3.6 0 0 1-.582.816q-.376.42-1.002.704-.617.284-1.555.284a4.5 4.5 0 0 1-2.28-.59q-1.016-.597-1.619-1.775-.597-1.186-.597-2.97 0-1.796.597-3.032.604-1.242 1.626-1.882a4.2 4.2 0 0 1 2.28-.646q.959 0 1.577.326.625.32.994.775.369.447.561.845h.142v-1.804h2.536v11.085q0 1.4-.668 2.316-.667.915-1.825 1.37t-2.628.455Zm.021-6.491q.817 0 1.392-.398.576-.397.874-1.144.298-.745.298-1.79 0-1.029-.298-1.803-.291-.776-.866-1.2-.569-.434-1.4-.434-.86 0-1.434.448-.576.447-.867 1.228-.291.774-.291 1.762 0 1 .291 1.754.298.745.874 1.165.582.412 1.427.412m-13.109 2.393q-1.037 0-1.868-.37a3.04 3.04 0 0 1-1.307-1.107q-.475-.733-.475-1.804 0-.924.34-1.527c.222-.397.542-.729.93-.966a4.7 4.7 0 0 1 1.329-.547 11 11 0 0 1 1.541-.277q.96-.099 1.556-.178.596-.085.866-.255.277-.178.277-.547v-.043q0-.802-.476-1.243-.476-.44-1.37-.44-.945 0-1.5.412-.546.412-.738.973l-2.4-.34q.284-.996.937-1.663a4.1 4.1 0 0 1 1.598-1.008 6.1 6.1 0 0 1 2.088-.341q.789 0 1.57.184.78.185 1.427.611.647.419 1.037 1.144.398.724.398 1.81v7.302h-2.472v-1.499h-.085a3.1 3.1 0 0 1-.66.853q-.42.39-1.059.632-.632.234-1.484.234m.668-1.89q.774 0 1.342-.305.568-.312.874-.823.312-.512.312-1.115v-1.286q-.12.1-.412.185-.284.084-.64.149-.354.063-.702.114l-.604.085q-.53.067-1.03.255a1.7 1.7 0 0 0-.717.498q-.263.312-.263.81 0 .71.519 1.072.518.362 1.32.362Zm-5.957-9.239v1.988H79.82v-1.988Zm-4.723-2.614h2.57v10.242q0 .517.157.795.163.27.426.37t.582.099q.242 0 .44-.036.207-.035.313-.064l.433 2.01q-.205.072-.589.156-.377.085-.923.1-.966.029-1.74-.291a2.7 2.7 0 0 1-1.23-1.009q-.446-.682-.44-1.704zm-10.341 7.131v6.392h-2.571v-10.91h2.457v1.854h.128a3.1 3.1 0 0 1 1.2-1.456q.832-.54 2.053-.54 1.13 0 1.967.484.846.483 1.307 1.399.47.916.462 2.223v6.946H75.46v-6.548q0-1.095-.568-1.712-.561-.618-1.556-.618-.675 0-1.2.298a2.07 2.07 0 0 0-.817.846q-.29.553-.29 1.342Zm-9.597 6.605q-1.64 0-2.834-.682a4.6 4.6 0 0 1-1.825-1.946q-.64-1.265-.64-2.976 0-1.683.64-2.954.646-1.279 1.804-1.989 1.158-.717 2.72-.717 1.008 0 1.904.326c.597.211 1.14.55 1.59.995q.697.675 1.094 1.718.398 1.038.398 2.472v.788H57.34v-1.732h6.477a2.76 2.76 0 0 0-.32-1.314 2.33 2.33 0 0 0-.873-.917q-.554-.333-1.292-.333-.788 0-1.385.383a2.64 2.64 0 0 0-.93.994c-.22.414-.335.875-.335 1.343v1.512q0 .953.349 1.634.348.675.973 1.037.624.355 1.463.355.56 0 1.015-.156.455-.164.789-.476.333-.312.504-.774l2.4.27a3.75 3.75 0 0 1-.866 1.662q-.632.702-1.62 1.093-.986.384-2.258.384M44 22.046V7.5h5.455q1.676 0 2.812.625 1.144.625 1.726 1.72.59 1.085.59 2.47 0 1.4-.59 2.486-.59 1.088-1.74 1.712-1.15.618-2.834.618h-3.615v-2.166h3.26q.98 0 1.605-.341c.398-.209.721-.537.923-.938q.306-.596.306-1.37 0-.773-.306-1.364a2.07 2.07 0 0 0-.93-.916q-.625-.334-1.612-.334h-2.415v12.344Z"/><path fill="#554FCA" d="M3 16C3 8.82 8.82 3 16 3s13 5.82 13 13-5.82 13-13 13S3 23.18 3 16m13 16c8.837 0 16-7.164 16-16S24.837 0 16 0 0 7.163 0 16s7.163 16 16 16"/><path fill="#554FCA" d="M12.124 25.966c-2.728.701-4.381.162-5.172-.63-.793-.792-1.332-2.444-.63-5.173.682-2.653 2.446-5.772 5.258-8.583s5.931-4.576 8.583-5.259c2.728-.7 4.381-.162 5.173.63.792.793 1.331 2.445.629 5.173-.682 2.653-2.446 5.772-5.257 8.584-2.812 2.811-5.932 4.575-8.585 5.257ZM4.83 27.457c3.692 3.693 11.75 1.62 17.999-4.628s8.32-14.307 4.628-17.999-11.75-1.62-17.999 4.628-8.32 14.307-4.628 18Z"/><path fill="#554FCA" d="M25.966 20.164c.701 2.728.163 4.38-.629 5.172-.793.792-2.445 1.331-5.173.63-2.653-.682-5.772-2.447-8.584-5.258s-4.576-5.931-5.258-8.584c-.701-2.728-.162-4.381.63-5.172.792-.793 2.444-1.331 5.172-.63 2.653.682 5.773 2.446 8.584 5.258s4.576 5.931 5.257 8.584Zm1.492 7.293c3.692-3.692 1.62-11.75-4.628-17.999s-14.307-8.32-18-4.628-1.62 11.75 4.629 18c6.248 6.248 14.307 8.32 17.999 4.628Z"/></svg>