<svg xmlns="http://www.w3.org/2000/svg" width="152.243" height="32" fill="none" overflow="visible"><path fill="#111127" d="M145.169 17.356v6.392h-2.571V9.203h2.514v5.49h.128a3.16 3.16 0 0 1 1.186-1.456q.81-.54 2.059-.54 1.137 0 1.982.476t1.307 1.392q.469.915.469 2.237v6.946h-2.571V17.2q0-1.101-.569-1.712-.56-.618-1.576-.618-.682 0-1.222.299a2.1 2.1 0 0 0-.838.845q-.298.555-.298 1.342m-9.356 6.605q-1.633 0-2.805-.717a4.8 4.8 0 0 1-1.797-1.982q-.625-1.271-.625-2.926 0-1.662.639-2.933a4.8 4.8 0 0 1 1.804-1.989q1.172-.717 2.77-.717 1.328 0 2.351.49c.66.3 1.227.774 1.64 1.37q.612.882.697 2.06h-2.458a2.35 2.35 0 0 0-.71-1.313q-.554-.533-1.484-.533a2.33 2.33 0 0 0-1.385.426q-.597.42-.931 1.207-.327.789-.327 1.89 0 1.114.327 1.917.327.795.916 1.229.596.426 1.4.426.567 0 1.015-.213.454-.22.76-.632.305-.412.419-1.002h2.458q-.093 1.158-.682 2.053a4.03 4.03 0 0 1-1.605 1.392q-1.017.497-2.387.497m-11.784 0q-1.641 0-2.834-.682a4.6 4.6 0 0 1-1.825-1.946q-.64-1.263-.64-2.975 0-1.685.64-2.955.646-1.278 1.804-1.989 1.157-.717 2.72-.717 1.008 0 1.903.327c.597.21 1.14.55 1.591.994q.696.675 1.094 1.719.398 1.037.398 2.471v.789h-8.942v-1.733h6.477a2.8 2.8 0 0 0-.319-1.314 2.33 2.33 0 0 0-.874-.916q-.553-.334-1.293-.334-.788 0-1.385.383a2.65 2.65 0 0 0-.93.995 2.9 2.9 0 0 0-.334 1.342v1.513q0 .951.348 1.633.349.675.973 1.037.626.355 1.463.355.561 0 1.016-.156c.293-.102.561-.264.788-.476q.334-.312.505-.774l2.4.27a3.74 3.74 0 0 1-.866 1.662q-.633.703-1.62 1.094-.987.383-2.258.383m-6.863-11.122v1.989h-6.271v-1.989Zm-4.723-2.614h2.571v10.242q0 .518.156.795.163.27.426.37t.583.099a3.3 3.3 0 0 0 .752-.099l.434 2.01a6 6 0 0 1-.59.156q-.377.085-.923.1-.966.027-1.74-.292a2.7 2.7 0 0 1-1.229-1.009q-.447-.681-.44-1.704Zm-7.509 13.736q-1.634 0-2.805-.717a4.8 4.8 0 0 1-1.797-1.982q-.625-1.271-.625-2.926 0-1.662.639-2.933a4.8 4.8 0 0 1 1.804-1.989q1.172-.717 2.77-.717 1.328 0 2.351.49c.661.3 1.228.774 1.641 1.37q.61.882.696 2.06h-2.458a2.35 2.35 0 0 0-.71-1.313q-.554-.533-1.484-.533a2.33 2.33 0 0 0-1.385.426q-.597.42-.931 1.207-.327.789-.326 1.89 0 1.114.326 1.917.327.795.916 1.229.597.426 1.4.426.568 0 1.015-.213.455-.22.76-.632t.419-1.002h2.458q-.093 1.158-.682 2.053a4.03 4.03 0 0 1-1.605 1.392q-1.016.497-2.387.497m-9.974-.213V12.84h2.572v10.91h-2.571Zm1.293-12.457a1.5 1.5 0 0 1-1.05-.405 1.3 1.3 0 0 1-.441-.987q0-.583.44-.988c.283-.27.66-.417 1.051-.411q.619 0 1.051.412.441.404.441.987 0 .575-.441.987-.432.405-1.051.405m-3.443 1.548v1.989h-6.27v-1.989Zm-4.723-2.614h2.571v10.242q0 .518.157.795.163.27.426.37t.582.099q.242 0 .44-.036.207-.035.313-.063l.433 2.01a6 6 0 0 1-.59.156q-.375.085-.923.1-.965.027-1.74-.292a2.7 2.7 0 0 1-1.228-1.009q-.448-.681-.44-1.704zm-7.75 13.736q-1.64 0-2.833-.682a4.6 4.6 0 0 1-1.826-1.946q-.639-1.263-.639-2.975 0-1.685.64-2.955.645-1.278 1.803-1.989 1.158-.717 2.72-.717 1.009 0 1.904.327c.597.211 1.14.55 1.59.994q.698.675 1.094 1.719.398 1.037.398 2.471v.789h-8.942v-1.733h6.478a2.76 2.76 0 0 0-.32-1.314 2.33 2.33 0 0 0-.873-.916q-.554-.334-1.293-.334-.788 0-1.385.383a2.65 2.65 0 0 0-.93.995q-.328.61-.334 1.342v1.513q0 .951.348 1.633.348.675.973 1.037.624.355 1.463.355.56 0 1.015-.156.454-.163.789-.476c.227-.214.399-.48.504-.774l2.4.27a3.74 3.74 0 0 1-.866 1.662q-.632.703-1.62 1.094-.986.383-2.258.383m-14.446-6.605v6.392h-2.57V12.84h2.457v1.854h.127a3.1 3.1 0 0 1 1.2-1.456q.832-.54 2.053-.54 1.13 0 1.968.483.845.482 1.306 1.4.47.914.462 2.222v6.946h-2.57V17.2q0-1.094-.569-1.712-.56-.618-1.555-.618-.675 0-1.2.299c-.348.197-.632.49-.817.845q-.292.555-.292 1.342m-7.786 6.392V12.84h2.571v10.91h-2.57Zm1.293-12.457a1.5 1.5 0 0 1-1.051-.405 1.3 1.3 0 0 1-.44-.987q0-.583.44-.988c.282-.27.66-.417 1.05-.411q.619 0 1.052.412.44.404.44.987 0 .575-.44.987-.434.405-1.051.405M44 23.748V9.203h2.635v6.683h.178l5.674-6.683h3.218L50.08 15.73l5.674 8.018h-3.167l-4.34-6.236-1.612 1.904v4.332Z"/><path fill="#B99570" d="M6 16c0-5.523 4.477-10 10-10s10 4.477 10 10-4.477 10-10 10S6 21.523 6 16m10 16c8.837 0 16-7.163 16-16S24.837 0 16 0 0 7.163 0 16s7.163 16 16 16"/></svg>