<svg xmlns="http://www.w3.org/2000/svg" width="150.698" height="32.005" fill="none" overflow="visible"><path fill="#655FCF" d="M30.078 8.396a16 16 0 1 0-1.824 17.894l-4.536-3.81a10.076 10.076 0 1 1 1.148-11.269l5.212-2.816Z"/><path fill="#655FCF" d="M24.866 11.21a10.075 10.075 0 1 0-1.149 11.275l.003-.003 4.536 3.81a16 16 0 0 1-8.51 5.267C11.675 33.501 3.46 28.948.828 21.075S2.023 4.624 9.64 1.323c7.616-3.302 16.492-.23 20.439 7.073v.002l-5.211 2.815z"/><path fill="#D2D0F1" d="M30.012 23.67a16 16 0 0 0 1.356-12.17L16 15.948z"/><path fill="#111127" d="M143.624 16.852v6.392h-2.571V8.699h2.514v5.49h.128a3.15 3.15 0 0 1 1.186-1.456q.81-.54 2.059-.54 1.137 0 1.982.476t1.307 1.392q.469.915.469 2.237v6.946h-2.572v-6.548q0-1.101-.568-1.712-.56-.618-1.576-.618-.682 0-1.222.299a2.1 2.1 0 0 0-.838.845q-.298.555-.298 1.342m-9.356 6.605q-1.633 0-2.805-.717a4.8 4.8 0 0 1-1.797-1.982q-.625-1.271-.625-2.926 0-1.662.639-2.933a4.8 4.8 0 0 1 1.804-1.989q1.172-.717 2.77-.717 1.328 0 2.351.49c.66.3 1.227.774 1.64 1.37q.612.882.696 2.06h-2.457a2.35 2.35 0 0 0-.71-1.313q-.553-.533-1.485-.533-.788 0-1.384.426-.597.42-.931 1.207-.327.789-.327 1.89 0 1.114.327 1.917.327.795.916 1.229.597.426 1.399.426.569 0 1.016-.213.454-.22.76-.632.305-.412.419-1.002h2.457q-.091 1.158-.681 2.053a4.03 4.03 0 0 1-1.605 1.392q-1.017.497-2.387.497m-11.784 0q-1.641 0-2.834-.682a4.6 4.6 0 0 1-1.825-1.946q-.64-1.263-.64-2.975 0-1.684.64-2.955.646-1.278 1.804-1.989 1.157-.717 2.72-.717 1.008 0 1.903.327c.597.21 1.14.549 1.591.994q.696.675 1.094 1.719.398 1.037.398 2.471v.789h-8.942V16.76h6.477a2.76 2.76 0 0 0-.32-1.314 2.33 2.33 0 0 0-.873-.916q-.553-.334-1.293-.334-.788 0-1.385.383a2.65 2.65 0 0 0-.93.995 2.9 2.9 0 0 0-.334 1.342v1.513q0 .951.348 1.633.348.675.973 1.037.626.355 1.463.355.561 0 1.016-.156c.293-.102.561-.264.788-.476.227-.214.4-.48.504-.774l2.401.27a3.74 3.74 0 0 1-.866 1.662q-.633.703-1.62 1.094-.987.383-2.258.383m-16.976-12.55V8.699h11.605v2.208h-4.496v12.337h-2.613V10.907Zm-2.119-2.208v14.545h-2.571V8.699ZM92.473 23.464q-1.037 0-1.868-.369-.825-.375-1.307-1.108-.476-.732-.476-1.804 0-.922.341-1.527c.222-.397.542-.729.93-.966a4.7 4.7 0 0 1 1.329-.547q.76-.195 1.541-.277.96-.099 1.555-.177.597-.085.867-.256.276-.177.277-.547v-.042q0-.803-.476-1.243t-1.37-.44q-.945 0-1.5.411-.546.413-.738.973l-2.4-.34q.283-.995.937-1.662.654-.675 1.598-1.009a6.1 6.1 0 0 1 2.088-.34q.789-.001 1.57.184.78.184 1.427.61.647.42 1.037 1.144.398.725.398 1.811v7.301H95.76v-1.498h-.085c-.169.32-.393.608-.66.852q-.42.39-1.059.632-.632.234-1.484.234Zm.668-1.889q.774 0 1.342-.305.569-.313.873-.824.313-.512.313-1.115v-1.286q-.12.1-.412.185-.284.085-.64.15-.35.063-.702.113l-.604.085q-.53.066-1.03.256a1.7 1.7 0 0 0-.717.497q-.263.312-.263.81 0 .71.519 1.072.518.362 1.32.362ZM76.85 23.244V8.699h2.57v5.44h.107q.2-.398.561-.845c.269-.324.602-.588.98-.774q.618-.327 1.577-.327 1.264 0 2.28.646 1.023.64 1.62 1.897.603 1.25.603 3.068 0 1.797-.59 3.054t-1.605 1.917q-1.016.66-2.3.66-.939 0-1.556-.312a3.2 3.2 0 0 1-.994-.752 5 5 0 0 1-.576-.846h-.149v1.72H76.85Zm2.521-5.454q0 1.058.298 1.853.306.796.874 1.243.574.44 1.392.44.852 0 1.427-.454.576-.462.867-1.257.298-.803.298-1.825 0-1.016-.29-1.804-.292-.789-.867-1.236-.576-.448-1.435-.448-.825 0-1.4.434-.575.432-.873 1.214-.291.78-.291 1.84m-10.044 5.667q-1.599 0-2.77-.703a4.8 4.8 0 0 1-1.818-1.967q-.64-1.265-.64-2.955c0-1.69.214-2.114.64-2.961a4.76 4.76 0 0 1 1.818-1.975q1.171-.703 2.77-.703 1.597 0 2.77.703a4.7 4.7 0 0 1 1.81 1.975q.648 1.27.647 2.961 0 1.69-.646 2.955a4.73 4.73 0 0 1-1.811 1.967q-1.173.703-2.77.703m.014-2.06q.866 0 1.449-.475.582-.483.866-1.293.291-.81.291-1.804a5.4 5.4 0 0 0-.29-1.81q-.285-.818-.867-1.3-.582-.484-1.449-.484-.888 0-1.477.483-.583.483-.874 1.3a5.5 5.5 0 0 0-.284 1.811q0 .994.284 1.804.29.81.874 1.293.59.476 1.477.476ZM61.924 8.699v14.545h-2.57V8.699Zm-7.81 4.645a3.8 3.8 0 0 0-.49-1.03c-.2-.303-.45-.57-.74-.789a3 3 0 0 0-.98-.49 4 4 0 0 0-1.207-.17q-1.17 0-2.088.59-.916.589-1.441 1.732-.519 1.137-.519 2.77 0 1.649.519 2.791.518 1.145 1.441 1.74.923.59 2.145.59 1.108 0 1.918-.426c.529-.27.967-.69 1.257-1.208q.44-.787.44-1.846l.597.092h-3.949v-2.06h5.902v1.748q0 1.868-.795 3.231-.796 1.364-2.188 2.103-1.392.73-3.196.731-2.01 0-3.53-.902-1.513-.909-2.365-2.578Q44 18.286 44 15.986q0-1.762.497-3.147.504-1.385 1.406-2.35a6 6 0 0 1 2.117-1.478q1.215-.51 2.642-.511 1.207 0 2.251.355c.672.219 1.3.555 1.854.994a5.44 5.44 0 0 1 2.032 3.494z"/></svg>